<?xml version="1.0" encoding="UTF-8" standalone="no"?>
<svg
   xmlns:dc="http://purl.org/dc/elements/1.1/"
   xmlns:cc="http://creativecommons.org/ns#"
   xmlns:rdf="http://www.w3.org/1999/02/22-rdf-syntax-ns#"
   xmlns:svg="http://www.w3.org/2000/svg"
   xmlns="http://www.w3.org/2000/svg"
   xmlns:sodipodi="http://sodipodi.sourceforge.net/DTD/sodipodi-0.dtd"
   xmlns:inkscape="http://www.inkscape.org/namespaces/inkscape"
   fill-opacity="1"
   color-rendering="auto"
   color-interpolation="auto"
   stroke="black"
   text-rendering="auto"
   stroke-linecap="square"
   width="3.9791666666666665in"
   stroke-miterlimit="10"
   stroke-opacity="1"
   shape-rendering="auto"
   fill="black"
   stroke-dasharray="none"
   font-weight="normal"
   stroke-width="1"
   viewBox="0 0 382 179"
   height="1.8645833333333333in"
   font-family="'Arial'"
   font-style="normal"
   stroke-linejoin="miter"
   font-size="12"
   stroke-dashoffset="0"
   image-rendering="auto"
   id="svg2"
   version="1.1"
   inkscape:version="0.91 r13725"
   sodipodi:docname="Cas d'utilisation.svg"
   inkscape:export-filename="F:\GitHub_Clef\PT_Oraux\Interrogation_SII\ServoMoteur_CommandeVanne\Divers\Cas d'utilisation.png"
   inkscape:export-xdpi="300"
   inkscape:export-ydpi="300">
  <metadata
     id="metadata115">
    <rdf:RDF>
      <cc:Work
         rdf:about="">
        <dc:format>image/svg+xml</dc:format>
        <dc:type
           rdf:resource="http://purl.org/dc/dcmitype/StillImage" />
      </cc:Work>
    </rdf:RDF>
  </metadata>
  <sodipodi:namedview
     pagecolor="#ffffff"
     bordercolor="#666666"
     borderopacity="1"
     objecttolerance="10"
     gridtolerance="10"
     guidetolerance="10"
     inkscape:pageopacity="0"
     inkscape:pageshadow="2"
     inkscape:window-width="1920"
     inkscape:window-height="1018"
     id="namedview113"
     showgrid="false"
     inkscape:zoom="2.8116441"
     inkscape:cx="143.30333"
     inkscape:cy="49.700964"
     inkscape:window-x="-8"
     inkscape:window-y="12"
     inkscape:window-maximized="1"
     inkscape:current-layer="g5" />
  <!--Generated by the Batik Graphics2D SVG Generator
 This is MagicDraw diagram.-->
  <defs
     id="genericDefs" />
  <g
     id="g5">
    <defs
       id="defs1">
      <linearGradient
         x1="133"
         gradientUnits="userSpaceOnUse"
         x2="347"
         y1="35"
         y2="144"
         id="linearGradient1"
         spreadMethod="pad">
        <stop
           stop-opacity="1"
           stop-color="rgb(212,221,255)"
           offset="0%"
           id="stop9" />
        <stop
           stop-opacity="1"
           stop-color="white"
           offset="100%"
           id="stop11" />
      </linearGradient>
      <linearGradient
         x1="147"
         gradientUnits="userSpaceOnUse"
         x2="336"
         y1="70"
         y2="133"
         id="linearGradient2"
         spreadMethod="pad">
        <stop
           stop-opacity="1"
           stop-color="rgb(255,255,204)"
           offset="0%"
           id="stop14" />
        <stop
           stop-opacity="1"
           stop-color="white"
           offset="100%"
           id="stop16" />
      </linearGradient>
      <linearGradient
         x1="46"
         gradientUnits="userSpaceOnUse"
         x2="73"
         y1="77"
         y2="104"
         id="linearGradient3"
         spreadMethod="pad">
        <stop
           stop-opacity="1"
           stop-color="rgb(255,255,204)"
           offset="0%"
           id="stop19" />
        <stop
           stop-opacity="1"
           stop-color="white"
           offset="100%"
           id="stop21" />
      </linearGradient>
      <clipPath
         clipPathUnits="userSpaceOnUse"
         id="clipPath1">
        <path
           d="M0 -5 L382 -5 L382 179 L0 179 L0 -5 Z"
           id="path24" />
      </clipPath>
      <clipPath
         clipPathUnits="userSpaceOnUse"
         id="clipPath2">
        <path
           d="M111.3651 660.921 L183.9025 306.2629 L339.6777 338.1233 L267.1403 692.7813 L111.3651 660.921 Z"
           id="path27" />
      </clipPath>
    </defs>
    <g
       fill="white"
       stroke="white"
       id="g29">
      <rect
         x="5"
         width="362"
         height="159"
         y="5"
         clip-path="url(#clipPath1)"
         stroke="none"
         id="rect31" />
    </g>
    <g
       fill="rgb(66,66,66)"
       text-rendering="geometricPrecision"
       stroke-linejoin="round"
       stroke-linecap="butt"
       stroke="rgb(66,66,66)"
       id="g39">
      <rect
         fill="none"
         x="5"
         width="362"
         height="159"
         y="5"
         clip-path="url(#clipPath1)"
         id="rect41" />
      <path
         fill="black"
         d="M110.4688 15.7322 L111.5156 15.9978 Q111.1875 17.2791 110.3359 17.9587 Q109.4844 18.6384 108.25 18.6384 Q106.9688 18.6384 106.1719 18.115 Q105.375 17.5916 104.9609 16.6072 Q104.5469 15.6228 104.5469 14.4978 Q104.5469 13.2791 105.0156 12.3572 Q105.4844 11.4353 106.3516 10.9587 Q107.2188 10.4822 108.2656 10.4822 Q109.4531 10.4822 110.2578 11.0837 Q111.0625 11.6853 111.375 12.7791 L110.3438 13.0291 Q110.0781 12.1697 109.5547 11.7791 Q109.0312 11.3884 108.25 11.3884 Q107.3281 11.3884 106.7188 11.8181 Q106.1094 12.2478 105.8672 12.9822 Q105.625 13.7166 105.625 14.4978 Q105.625 15.4978 105.9141 16.2478 Q106.2031 16.9978 106.8203 17.3728 Q107.4375 17.7478 108.1562 17.7478 Q109.0312 17.7478 109.6406 17.24 Q110.25 16.7322 110.4688 15.7322 ZM115.4531 17.7947 Q114.9062 18.2478 114.4141 18.4353 Q113.9219 18.6228 113.3438 18.6228 Q112.4062 18.6228 111.8984 18.1619 Q111.3906 17.7009 111.3906 16.9978 Q111.3906 16.5759 111.5859 16.2322 Q111.7812 15.8884 112.0859 15.6775 Q112.3906 15.4666 112.7812 15.3572 Q113.0625 15.2791 113.6406 15.2166 Q114.8125 15.0759 115.3594 14.8728 Q115.375 14.6853 115.375 14.6228 Q115.375 14.0291 115.0938 13.7947 Q114.7344 13.4666 114 13.4666 Q113.3125 13.4666 112.9922 13.7009 Q112.6719 13.9353 112.5156 14.5447 L111.5625 14.4197 Q111.6875 13.8103 111.9844 13.4353 Q112.2812 13.0603 112.8438 12.865 Q113.4062 12.6697 114.1406 12.6697 Q114.875 12.6697 115.3281 12.8416 Q115.7812 13.0134 115.9922 13.2712 Q116.2031 13.5291 116.2969 13.9197 Q116.3438 14.1697 116.3438 14.8259 L116.3438 16.1072 Q116.3438 17.4509 116.4062 17.8103 Q116.4688 18.1697 116.6562 18.4978 L115.6406 18.4978 Q115.4844 18.2009 115.4531 17.7947 ZM115.3594 15.6384 Q114.8438 15.8572 113.7812 15.9978 Q113.1875 16.0916 112.9453 16.1931 Q112.7031 16.2947 112.5625 16.5056 Q112.4219 16.7166 112.4219 16.9666 Q112.4219 17.3572 112.7188 17.615 Q113.0156 17.8728 113.5781 17.8728 Q114.1406 17.8728 114.5703 17.6228 Q115 17.3728 115.2188 16.9509 Q115.3594 16.6228 115.3594 15.9822 L115.3594 15.6384 ZM117.3438 16.7947 L118.2969 16.6384 Q118.375 17.2166 118.7422 17.5212 Q119.1094 17.8259 119.7656 17.8259 Q120.4375 17.8259 120.7578 17.5603 Q121.0781 17.2947 121.0781 16.9197 Q121.0781 16.5916 120.7969 16.4041 Q120.5938 16.2791 119.8125 16.0759 Q118.75 15.8103 118.3359 15.615 Q117.9219 15.4197 117.7109 15.0759 Q117.5 14.7322 117.5 14.3103 Q117.5 13.9197 117.6719 13.5994 Q117.8438 13.2791 118.1562 13.0603 Q118.375 12.8884 118.7656 12.7791 Q119.1562 12.6697 119.5938 12.6697 Q120.2656 12.6697 120.7734 12.8572 Q121.2812 13.0447 121.5234 13.3806 Q121.7656 13.7166 121.8594 14.2634 L120.9219 14.3884 Q120.8438 13.9509 120.5391 13.7087 Q120.2344 13.4666 119.6719 13.4666 Q119 13.4666 118.7188 13.6853 Q118.4375 13.9041 118.4375 14.2009 Q118.4375 14.3884 118.5469 14.5291 Q118.6719 14.6853 118.9219 14.7947 Q119.0625 14.8416 119.7812 15.0447 Q120.7969 15.3103 121.2031 15.4822 Q121.6094 15.6541 121.8438 15.99 Q122.0781 16.3259 122.0781 16.8259 Q122.0781 17.3103 121.7969 17.7322 Q121.5156 18.1541 120.9844 18.3884 Q120.4531 18.6228 119.7812 18.6228 Q118.6719 18.6228 118.0859 18.1619 Q117.5 17.7009 117.3438 16.7947 ZM130.4219 18.4978 L130.4219 17.7791 Q129.8906 18.6228 128.8281 18.6228 Q128.1562 18.6228 127.5781 18.2478 Q127 17.8728 126.6875 17.2009 Q126.375 16.5291 126.375 15.6541 Q126.375 14.7947 126.6641 14.0994 Q126.9531 13.4041 127.5156 13.0369 Q128.0781 12.6697 128.7812 12.6697 Q129.2969 12.6697 129.7031 12.8884 Q130.1094 13.1072 130.3594 13.4509 L130.3594 10.6228 L131.3281 10.6228 L131.3281 18.4978 L130.4219 18.4978 ZM127.375 15.6541 Q127.375 16.7478 127.8359 17.2869 Q128.2969 17.8259 128.9219 17.8259 Q129.5625 17.8259 130 17.3103 Q130.4375 16.7947 130.4375 15.7322 Q130.4375 14.5603 129.9922 14.0134 Q129.5469 13.4666 128.875 13.4666 Q128.2344 13.4666 127.8047 13.99 Q127.375 14.5134 127.375 15.6541 ZM132.7344 13.4041 L132.4844 11.9353 L132.4844 10.6228 L133.5781 10.6228 L133.5781 11.9353 L133.3281 13.4041 L132.7344 13.4041 ZM138.4688 18.4978 L138.4688 17.6541 Q137.7969 18.6228 136.6562 18.6228 Q136.1562 18.6228 135.7109 18.4275 Q135.2656 18.2322 135.0547 17.9431 Q134.8438 17.6541 134.7656 17.2322 Q134.7031 16.9509 134.7031 16.3259 L134.7031 12.7947 L135.6719 12.7947 L135.6719 15.9509 Q135.6719 16.7166 135.7344 16.9822 Q135.8281 17.3572 136.1172 17.5759 Q136.4062 17.7947 136.8438 17.7947 Q137.2812 17.7947 137.6641 17.5681 Q138.0469 17.3416 138.2031 16.9587 Q138.3594 16.5759 138.3594 15.8572 L138.3594 12.7947 L139.3281 12.7947 L139.3281 18.4978 L138.4688 18.4978 ZM142.8438 17.6384 L142.9688 18.4822 Q142.5625 18.5759 142.25 18.5759 Q141.7188 18.5759 141.4297 18.4041 Q141.1406 18.2322 141.0234 17.9666 Q140.9062 17.7009 140.9062 16.8259 L140.9062 13.5447 L140.1875 13.5447 L140.1875 12.7947 L140.9062 12.7947 L140.9062 11.3884 L141.8594 10.7947 L141.8594 12.7947 L142.8438 12.7947 L142.8438 13.5447 L141.8594 13.5447 L141.8594 16.8884 Q141.8594 17.2947 141.9141 17.4119 Q141.9688 17.5291 142.0859 17.5994 Q142.2031 17.6697 142.4062 17.6697 Q142.5781 17.6697 142.8438 17.6384 ZM143.7344 11.7322 L143.7344 10.6228 L144.7031 10.6228 L144.7031 11.7322 L143.7344 11.7322 ZM143.7344 18.4978 L143.7344 12.7947 L144.7031 12.7947 L144.7031 18.4978 L143.7344 18.4978 ZM145.7031 18.4978 L145.7031 10.6228 L146.6719 10.6228 L146.6719 18.4978 L145.7031 18.4978 ZM147.7344 11.7322 L147.7344 10.6228 L148.7031 10.6228 L148.7031 11.7322 L147.7344 11.7322 ZM147.7344 18.4978 L147.7344 12.7947 L148.7031 12.7947 L148.7031 18.4978 L147.7344 18.4978 ZM149.3438 16.7947 L150.2969 16.6384 Q150.375 17.2166 150.7422 17.5212 Q151.1094 17.8259 151.7656 17.8259 Q152.4375 17.8259 152.7578 17.5603 Q153.0781 17.2947 153.0781 16.9197 Q153.0781 16.5916 152.7969 16.4041 Q152.5938 16.2791 151.8125 16.0759 Q150.75 15.8103 150.3359 15.615 Q149.9219 15.4197 149.7109 15.0759 Q149.5 14.7322 149.5 14.3103 Q149.5 13.9197 149.6719 13.5994 Q149.8438 13.2791 150.1562 13.0603 Q150.375 12.8884 150.7656 12.7791 Q151.1562 12.6697 151.5938 12.6697 Q152.2656 12.6697 152.7734 12.8572 Q153.2812 13.0447 153.5234 13.3806 Q153.7656 13.7166 153.8594 14.2634 L152.9219 14.3884 Q152.8438 13.9509 152.5391 13.7087 Q152.2344 13.4666 151.6719 13.4666 Q151 13.4666 150.7188 13.6853 Q150.4375 13.9041 150.4375 14.2009 Q150.4375 14.3884 150.5469 14.5291 Q150.6719 14.6853 150.9219 14.7947 Q151.0625 14.8416 151.7812 15.0447 Q152.7969 15.3103 153.2031 15.4822 Q153.6094 15.6541 153.8438 15.99 Q154.0781 16.3259 154.0781 16.8259 Q154.0781 17.3103 153.7969 17.7322 Q153.5156 18.1541 152.9844 18.3884 Q152.4531 18.6228 151.7812 18.6228 Q150.6719 18.6228 150.0859 18.1619 Q149.5 17.7009 149.3438 16.7947 ZM159.4531 17.7947 Q158.9062 18.2478 158.4141 18.4353 Q157.9219 18.6228 157.3438 18.6228 Q156.4062 18.6228 155.8984 18.1619 Q155.3906 17.7009 155.3906 16.9978 Q155.3906 16.5759 155.5859 16.2322 Q155.7812 15.8884 156.0859 15.6775 Q156.3906 15.4666 156.7812 15.3572 Q157.0625 15.2791 157.6406 15.2166 Q158.8125 15.0759 159.3594 14.8728 Q159.375 14.6853 159.375 14.6228 Q159.375 14.0291 159.0938 13.7947 Q158.7344 13.4666 158 13.4666 Q157.3125 13.4666 156.9922 13.7009 Q156.6719 13.9353 156.5156 14.5447 L155.5625 14.4197 Q155.6875 13.8103 155.9844 13.4353 Q156.2812 13.0603 156.8438 12.865 Q157.4062 12.6697 158.1406 12.6697 Q158.875 12.6697 159.3281 12.8416 Q159.7812 13.0134 159.9922 13.2712 Q160.2031 13.5291 160.2969 13.9197 Q160.3438 14.1697 160.3438 14.8259 L160.3438 16.1072 Q160.3438 17.4509 160.4062 17.8103 Q160.4688 18.1697 160.6562 18.4978 L159.6406 18.4978 Q159.4844 18.2009 159.4531 17.7947 ZM159.3594 15.6384 Q158.8438 15.8572 157.7812 15.9978 Q157.1875 16.0916 156.9453 16.1931 Q156.7031 16.2947 156.5625 16.5056 Q156.4219 16.7166 156.4219 16.9666 Q156.4219 17.3572 156.7188 17.615 Q157.0156 17.8728 157.5781 17.8728 Q158.1406 17.8728 158.5703 17.6228 Q159 17.3728 159.2188 16.9509 Q159.3594 16.6228 159.3594 15.9822 L159.3594 15.6384 ZM163.8438 17.6384 L163.9688 18.4822 Q163.5625 18.5759 163.25 18.5759 Q162.7188 18.5759 162.4297 18.4041 Q162.1406 18.2322 162.0234 17.9666 Q161.9062 17.7009 161.9062 16.8259 L161.9062 13.5447 L161.1875 13.5447 L161.1875 12.7947 L161.9062 12.7947 L161.9062 11.3884 L162.8594 10.7947 L162.8594 12.7947 L163.8438 12.7947 L163.8438 13.5447 L162.8594 13.5447 L162.8594 16.8884 Q162.8594 17.2947 162.9141 17.4119 Q162.9688 17.5291 163.0859 17.5994 Q163.2031 17.6697 163.4062 17.6697 Q163.5781 17.6697 163.8438 17.6384 ZM164.7344 11.7322 L164.7344 10.6228 L165.7031 10.6228 L165.7031 11.7322 L164.7344 11.7322 ZM164.7344 18.4978 L164.7344 12.7947 L165.7031 12.7947 L165.7031 18.4978 L164.7344 18.4978 ZM166.3594 15.6384 Q166.3594 14.0603 167.25 13.2947 Q167.9844 12.6697 169.0469 12.6697 Q170.2188 12.6697 170.9609 13.4353 Q171.7031 14.2009 171.7031 15.5603 Q171.7031 16.6697 171.375 17.3025 Q171.0469 17.9353 170.4141 18.2791 Q169.7812 18.6228 169.0469 18.6228 Q167.8438 18.6228 167.1016 17.8572 Q166.3594 17.0916 166.3594 15.6384 ZM167.3594 15.6384 Q167.3594 16.7478 167.8359 17.2869 Q168.3125 17.8259 169.0469 17.8259 Q169.7656 17.8259 170.2422 17.2791 Q170.7188 16.7322 170.7188 15.6072 Q170.7188 14.5603 170.2344 14.0134 Q169.75 13.4666 169.0469 13.4666 Q168.3125 13.4666 167.8359 14.0056 Q167.3594 14.5447 167.3594 15.6384 ZM172.7188 18.4978 L172.7188 12.7947 L173.5938 12.7947 L173.5938 13.6072 Q174.2188 12.6697 175.4062 12.6697 Q175.9219 12.6697 176.3594 12.8494 Q176.7969 13.0291 177.0078 13.3337 Q177.2188 13.6384 177.3125 14.0447 Q177.3594 14.3259 177.3594 14.9978 L177.3594 18.4978 L176.3906 18.4978 L176.3906 15.0291 Q176.3906 14.4353 176.2812 14.1462 Q176.1719 13.8572 175.8828 13.6775 Q175.5938 13.4978 175.2031 13.4978 Q174.5938 13.4978 174.1406 13.8884 Q173.6875 14.2791 173.6875 15.3884 L173.6875 18.4978 L172.7188 18.4978 Z"
         clip-path="url(#clipPath1)"
         stroke="none"
         id="path43" />
      <path
         fill="black"
         d="M29.75 20.6853 L29.75 10.6228 L31.875 10.6228 L31.875 11.4197 L30.7188 11.4197 L30.7188 19.8884 L31.875 19.8884 L31.875 20.6853 L29.75 20.6853 ZM32.8125 18.4978 L32.8125 10.6228 L34.3906 10.6228 L36.25 16.2009 Q36.5 16.9822 36.625 17.3572 Q36.7656 16.9353 37.0469 16.1072 L38.9219 10.6228 L40.3281 10.6228 L40.3281 18.4978 L39.3281 18.4978 L39.3281 11.9041 L37.0312 18.4978 L36.0938 18.4978 L33.8281 11.7947 L33.8281 18.4978 L32.8125 18.4978 ZM40.3594 15.6384 Q40.3594 14.0603 41.25 13.2947 Q41.9844 12.6697 43.0469 12.6697 Q44.2188 12.6697 44.9609 13.4353 Q45.7031 14.2009 45.7031 15.5603 Q45.7031 16.6697 45.375 17.3025 Q45.0469 17.9353 44.4141 18.2791 Q43.7812 18.6228 43.0469 18.6228 Q41.8438 18.6228 41.1016 17.8572 Q40.3594 17.0916 40.3594 15.6384 ZM41.3594 15.6384 Q41.3594 16.7478 41.8359 17.2869 Q42.3125 17.8259 43.0469 17.8259 Q43.7656 17.8259 44.2422 17.2791 Q44.7188 16.7322 44.7188 15.6072 Q44.7188 14.5603 44.2344 14.0134 Q43.75 13.4666 43.0469 13.4666 Q42.3125 13.4666 41.8359 14.0056 Q41.3594 14.5447 41.3594 15.6384 ZM50.4219 18.4978 L50.4219 17.7791 Q49.8906 18.6228 48.8281 18.6228 Q48.1562 18.6228 47.5781 18.2478 Q47 17.8728 46.6875 17.2009 Q46.375 16.5291 46.375 15.6541 Q46.375 14.7947 46.6641 14.0994 Q46.9531 13.4041 47.5156 13.0369 Q48.0781 12.6697 48.7812 12.6697 Q49.2969 12.6697 49.7031 12.8884 Q50.1094 13.1072 50.3594 13.4509 L50.3594 10.6228 L51.3281 10.6228 L51.3281 18.4978 L50.4219 18.4978 ZM47.375 15.6541 Q47.375 16.7478 47.8359 17.2869 Q48.2969 17.8259 48.9219 17.8259 Q49.5625 17.8259 50 17.3103 Q50.4375 16.7947 50.4375 15.7322 Q50.4375 14.5603 49.9922 14.0134 Q49.5469 13.4666 48.875 13.4666 Q48.2344 13.4666 47.8047 13.99 Q47.375 14.5134 47.375 15.6541 ZM56.625 16.6541 L57.625 16.7791 Q57.3906 17.6541 56.75 18.1384 Q56.1094 18.6228 55.125 18.6228 Q53.875 18.6228 53.1406 17.8572 Q52.4062 17.0916 52.4062 15.7009 Q52.4062 14.2478 53.1484 13.4587 Q53.8906 12.6697 55.0625 12.6697 Q56.2188 12.6697 56.9375 13.4431 Q57.6562 14.2166 57.6562 15.6384 Q57.6562 15.7166 57.6562 15.8884 L53.4062 15.8884 Q53.4531 16.8259 53.9297 17.3259 Q54.4062 17.8259 55.125 17.8259 Q55.6562 17.8259 56.0312 17.5525 Q56.4062 17.2791 56.625 16.6541 ZM53.4531 15.0916 L56.6406 15.0916 Q56.5781 14.3728 56.2812 14.0134 Q55.8125 13.4666 55.0781 13.4666 Q54.4062 13.4666 53.9531 13.9119 Q53.5 14.3572 53.4531 15.0916 ZM54.7812 11.4978 L54 11.4978 L52.7656 9.9822 L54.0469 9.9822 L54.7812 11.4978 ZM58.7031 18.4978 L58.7031 10.6228 L59.6719 10.6228 L59.6719 18.4978 L58.7031 18.4978 ZM64.625 16.6541 L65.625 16.7791 Q65.3906 17.6541 64.75 18.1384 Q64.1094 18.6228 63.125 18.6228 Q61.875 18.6228 61.1406 17.8572 Q60.4062 17.0916 60.4062 15.7009 Q60.4062 14.2478 61.1484 13.4587 Q61.8906 12.6697 63.0625 12.6697 Q64.2188 12.6697 64.9375 13.4431 Q65.6562 14.2166 65.6562 15.6384 Q65.6562 15.7166 65.6562 15.8884 L61.4062 15.8884 Q61.4531 16.8259 61.9297 17.3259 Q62.4062 17.8259 63.125 17.8259 Q63.6562 17.8259 64.0312 17.5525 Q64.4062 17.2791 64.625 16.6541 ZM61.4531 15.0916 L64.6406 15.0916 Q64.5781 14.3728 64.2812 14.0134 Q63.8125 13.4666 63.0781 13.4666 Q62.4062 13.4666 61.9531 13.9119 Q61.5 14.3572 61.4531 15.0916 ZM68.3438 20.6853 L66.2031 20.6853 L66.2031 19.8884 L67.375 19.8884 L67.375 11.4197 L66.2031 11.4197 L66.2031 10.6228 L68.3438 10.6228 L68.3438 20.6853 Z"
         clip-path="url(#clipPath1)"
         stroke="none"
         id="path45" />
      <path
         fill="black"
         d="M73.8438 18.4978 L73.8438 10.6228 L76.5625 10.6228 Q77.4844 10.6228 77.9688 10.7322 Q78.6406 10.8884 79.125 11.2947 Q79.7344 11.8259 80.0469 12.6462 Q80.3594 13.4666 80.3594 14.5134 Q80.3594 15.4197 80.1484 16.1072 Q79.9375 16.7947 79.6094 17.2478 Q79.2812 17.7009 78.8906 17.9666 Q78.5 18.2322 77.9531 18.365 Q77.4062 18.4978 76.6875 18.4978 L73.8438 18.4978 ZM74.8906 17.5759 L76.5781 17.5759 Q77.3438 17.5759 77.7891 17.4275 Q78.2344 17.2791 78.5 17.0134 Q78.875 16.6384 79.0781 16.0134 Q79.2812 15.3884 79.2812 14.4978 Q79.2812 13.2634 78.875 12.5994 Q78.4688 11.9353 77.8906 11.7166 Q77.4688 11.5603 76.5469 11.5603 L74.8906 11.5603 L74.8906 17.5759 ZM84.4531 17.7947 Q83.9062 18.2478 83.4141 18.4353 Q82.9219 18.6228 82.3438 18.6228 Q81.4062 18.6228 80.8984 18.1619 Q80.3906 17.7009 80.3906 16.9978 Q80.3906 16.5759 80.5859 16.2322 Q80.7812 15.8884 81.0859 15.6775 Q81.3906 15.4666 81.7812 15.3572 Q82.0625 15.2791 82.6406 15.2166 Q83.8125 15.0759 84.3594 14.8728 Q84.375 14.6853 84.375 14.6228 Q84.375 14.0291 84.0938 13.7947 Q83.7344 13.4666 83 13.4666 Q82.3125 13.4666 81.9922 13.7009 Q81.6719 13.9353 81.5156 14.5447 L80.5625 14.4197 Q80.6875 13.8103 80.9844 13.4353 Q81.2812 13.0603 81.8438 12.865 Q82.4062 12.6697 83.1406 12.6697 Q83.875 12.6697 84.3281 12.8416 Q84.7812 13.0134 84.9922 13.2712 Q85.2031 13.5291 85.2969 13.9197 Q85.3438 14.1697 85.3438 14.8259 L85.3438 16.1072 Q85.3438 17.4509 85.4062 17.8103 Q85.4688 18.1697 85.6562 18.4978 L84.6406 18.4978 Q84.4844 18.2009 84.4531 17.7947 ZM84.3594 15.6384 Q83.8438 15.8572 82.7812 15.9978 Q82.1875 16.0916 81.9453 16.1931 Q81.7031 16.2947 81.5625 16.5056 Q81.4219 16.7166 81.4219 16.9666 Q81.4219 17.3572 81.7188 17.615 Q82.0156 17.8728 82.5781 17.8728 Q83.1406 17.8728 83.5703 17.6228 Q84 17.3728 84.2188 16.9509 Q84.3594 16.6228 84.3594 15.9822 L84.3594 15.6384 ZM88.8438 17.6384 L88.9688 18.4822 Q88.5625 18.5759 88.25 18.5759 Q87.7188 18.5759 87.4297 18.4041 Q87.1406 18.2322 87.0234 17.9666 Q86.9062 17.7009 86.9062 16.8259 L86.9062 13.5447 L86.1875 13.5447 L86.1875 12.7947 L86.9062 12.7947 L86.9062 11.3884 L87.8594 10.7947 L87.8594 12.7947 L88.8438 12.7947 L88.8438 13.5447 L87.8594 13.5447 L87.8594 16.8884 Q87.8594 17.2947 87.9141 17.4119 Q87.9688 17.5291 88.0859 17.5994 Q88.2031 17.6697 88.4062 17.6697 Q88.5781 17.6697 88.8438 17.6384 ZM93.4531 17.7947 Q92.9062 18.2478 92.4141 18.4353 Q91.9219 18.6228 91.3438 18.6228 Q90.4062 18.6228 89.8984 18.1619 Q89.3906 17.7009 89.3906 16.9978 Q89.3906 16.5759 89.5859 16.2322 Q89.7812 15.8884 90.0859 15.6775 Q90.3906 15.4666 90.7812 15.3572 Q91.0625 15.2791 91.6406 15.2166 Q92.8125 15.0759 93.3594 14.8728 Q93.375 14.6853 93.375 14.6228 Q93.375 14.0291 93.0938 13.7947 Q92.7344 13.4666 92 13.4666 Q91.3125 13.4666 90.9922 13.7009 Q90.6719 13.9353 90.5156 14.5447 L89.5625 14.4197 Q89.6875 13.8103 89.9844 13.4353 Q90.2812 13.0603 90.8438 12.865 Q91.4062 12.6697 92.1406 12.6697 Q92.875 12.6697 93.3281 12.8416 Q93.7812 13.0134 93.9922 13.2712 Q94.2031 13.5291 94.2969 13.9197 Q94.3438 14.1697 94.3438 14.8259 L94.3438 16.1072 Q94.3438 17.4509 94.4062 17.8103 Q94.4688 18.1697 94.6562 18.4978 L93.6406 18.4978 Q93.4844 18.2009 93.4531 17.7947 ZM93.3594 15.6384 Q92.8438 15.8572 91.7812 15.9978 Q91.1875 16.0916 90.9453 16.1931 Q90.7031 16.2947 90.5625 16.5056 Q90.4219 16.7166 90.4219 16.9666 Q90.4219 17.3572 90.7188 17.615 Q91.0156 17.8728 91.5781 17.8728 Q92.1406 17.8728 92.5703 17.6228 Q93 17.3728 93.2188 16.9509 Q93.3594 16.6228 93.3594 15.9822 L93.3594 15.6384 Z"
         clip-path="url(#clipPath1)"
         stroke="none"
         id="path47" />
      <path
         fill="black"
         d="M16.5469 18.4978 L16.5469 17.6384 Q16.2344 18.1072 15.7266 18.365 Q15.2188 18.6228 14.6562 18.6228 Q14.0781 18.6228 13.625 18.3728 Q13.1719 18.1228 12.9609 17.6619 Q12.75 17.2009 12.75 16.4041 L12.75 12.7947 L14.2656 12.7947 L14.2656 15.4197 Q14.2656 16.6228 14.3516 16.8884 Q14.4375 17.1541 14.6562 17.3181 Q14.875 17.4822 15.2188 17.4822 Q15.5938 17.4822 15.9062 17.2712 Q16.2188 17.0603 16.3281 16.74 Q16.4375 16.4197 16.4375 15.2009 L16.4375 12.7947 L17.9531 12.7947 L17.9531 18.4978 L16.5469 18.4978 ZM24.7656 14.4822 L23.2812 14.7478 Q23.2031 14.3103 22.9375 14.0837 Q22.6719 13.8572 22.25 13.8572 Q21.6875 13.8572 21.3516 14.24 Q21.0156 14.6228 21.0156 15.5447 Q21.0156 16.5603 21.3516 16.9822 Q21.6875 17.4041 22.2656 17.4041 Q22.7031 17.4041 22.9766 17.1541 Q23.25 16.9041 23.3594 16.3103 L24.8438 16.5603 Q24.6094 17.5916 23.9531 18.1072 Q23.2969 18.6228 22.2031 18.6228 Q20.9375 18.6228 20.1953 17.8337 Q19.4531 17.0447 19.4531 15.6541 Q19.4531 14.2322 20.2031 13.4509 Q20.9531 12.6697 22.2188 12.6697 Q23.2656 12.6697 23.8828 13.115 Q24.5 13.5603 24.7656 14.4822 Z"
         clip-path="url(#clipPath1)"
         stroke="none"
         id="path49" />
      <path
         fill="black"
         d="M97.75 20.6853 L97.75 10.6228 L99.875 10.6228 L99.875 11.4197 L98.7188 11.4197 L98.7188 19.8884 L99.875 19.8884 L99.875 20.6853 L97.75 20.6853 Z"
         clip-path="url(#clipPath1)"
         stroke="none"
         id="path51" />
      <path
         fill="black"
         d="M184.3438 20.6853 L182.2031 20.6853 L182.2031 19.8884 L183.375 19.8884 L183.375 11.4197 L182.2031 11.4197 L182.2031 10.6228 L184.3438 10.6228 L184.3438 20.6853 Z"
         clip-path="url(#clipPath1)"
         stroke="none"
         id="path53" />
      <line
         y2="23"
         fill="none"
         x1="5"
         clip-path="url(#clipPath1)"
         x2="180"
         y1="23"
         id="line55" />
      <line
         y2="17"
         fill="none"
         x1="189"
         clip-path="url(#clipPath1)"
         x2="189"
         y1="5"
         id="line57" />
      <line
         y2="17"
         fill="none"
         x1="180"
         clip-path="url(#clipPath1)"
         x2="189"
         y1="23"
         id="line59" />
      <rect
         x="136"
         y="38"
         clip-path="url(#clipPath1)"
         fill="rgb(178,178,178)"
         width="214"
         height="109"
         stroke="none"
         id="rect61" />
      <rect
         x="133"
         y="35"
         clip-path="url(#clipPath1)"
         fill="url(#linearGradient1)"
         width="214"
         height="109"
         stroke="none"
         id="rect63" />
      <rect
         x="133"
         y="35"
         clip-path="url(#clipPath1)"
         fill="none"
         width="214"
         height="109"
         stroke="rgb(107,117,153)"
         id="rect65" />
      <path
         fill="black"
         d="M147.5 48.0952 L149.4688 47.9077 Q149.6562 48.8921 150.1953 49.3608 Q150.7344 49.8296 151.6562 49.8296 Q152.6406 49.8296 153.1328 49.4155 Q153.625 49.0015 153.625 48.4546 Q153.625 48.0952 153.4219 47.8452 Q153.2188 47.5952 152.6875 47.4077 Q152.3438 47.2827 151.0781 46.9702 Q149.4531 46.564 148.7969 45.9858 Q147.875 45.1577 147.875 43.9702 Q147.875 43.2046 148.3047 42.5327 Q148.7344 41.8608 149.5547 41.5171 Q150.375 41.1733 151.5312 41.1733 Q153.4062 41.1733 154.3594 42.0015 Q155.3125 42.8296 155.375 44.2046 L153.3438 44.2983 Q153.2188 43.5171 152.7891 43.1812 Q152.3594 42.8452 151.5 42.8452 Q150.625 42.8452 150.125 43.2046 Q149.7969 43.439 149.7969 43.8296 Q149.7969 44.189 150.1094 44.439 Q150.4844 44.7515 151.9609 45.103 Q153.4375 45.4546 154.1484 45.8296 Q154.8594 46.2046 155.2578 46.8452 Q155.6562 47.4858 155.6562 48.439 Q155.6562 49.2983 155.1797 50.0562 Q154.7031 50.814 153.8281 51.1733 Q152.9531 51.5327 151.6406 51.5327 Q149.7344 51.5327 148.7188 50.6577 Q147.7031 49.7827 147.5 48.0952 ZM161.2031 49.0483 L163.125 49.3765 Q162.75 50.4233 161.9531 50.978 Q161.1562 51.5327 159.9688 51.5327 Q158.0781 51.5327 157.1562 50.2827 Q156.4375 49.2983 156.4375 47.7827 Q156.4375 45.9858 157.3828 44.9624 Q158.3281 43.939 159.7812 43.939 Q161.3906 43.939 162.3281 45.0093 Q163.2656 46.0796 163.2188 48.2827 L158.4062 48.2827 Q158.4375 49.1421 158.8828 49.6187 Q159.3281 50.0952 159.9844 50.0952 Q160.4375 50.0952 160.7422 49.8452 Q161.0469 49.5952 161.2031 49.0483 ZM161.3125 47.1108 Q161.2969 46.2671 160.8906 45.8374 Q160.4844 45.4077 159.8906 45.4077 Q159.2656 45.4077 158.8438 45.8608 Q158.4375 46.3296 158.4531 47.1108 L161.3125 47.1108 ZM167.8438 51.3608 L165.9219 51.3608 L165.9219 44.0952 L167.7031 44.0952 L167.7031 45.1265 Q168.1719 44.4077 168.5312 44.1733 Q168.8906 43.939 169.3594 43.939 Q170.0156 43.939 170.625 44.2983 L170.0312 45.9702 Q169.5469 45.6577 169.125 45.6577 Q168.7188 45.6577 168.4453 45.8843 Q168.1719 46.1108 168.0078 46.689 Q167.8438 47.2671 167.8438 49.1108 L167.8438 51.3608 ZM174 51.3608 L171.0781 44.0952 L173.0938 44.0952 L174.4531 47.7983 L174.8594 49.0483 Q175.0156 48.564 175.0469 48.4233 Q175.1562 48.1108 175.2656 47.7983 L176.6406 44.0952 L178.6094 44.0952 L175.7344 51.3608 L174 51.3608 ZM180.5625 47.6265 Q180.5625 46.6733 181.0312 45.7749 Q181.5 44.8765 182.3672 44.4077 Q183.2344 43.939 184.2969 43.939 Q185.9531 43.939 187 45.0093 Q188.0469 46.0796 188.0469 47.7046 Q188.0469 49.3608 186.9844 50.4468 Q185.9219 51.5327 184.3125 51.5327 Q183.3125 51.5327 182.4062 51.0796 Q181.5 50.6265 181.0312 49.7515 Q180.5625 48.8765 180.5625 47.6265 ZM182.5312 47.7358 Q182.5312 48.814 183.0469 49.3843 Q183.5625 49.9546 184.3125 49.9546 Q185.0625 49.9546 185.5703 49.3843 Q186.0781 48.814 186.0781 47.7202 Q186.0781 46.6577 185.5703 46.0796 Q185.0625 45.5015 184.3125 45.5015 Q183.5625 45.5015 183.0469 46.0796 Q182.5312 46.6577 182.5312 47.7358 ZM196.3281 46.2515 L194.4375 46.5952 Q194.3438 46.0171 194.0078 45.7358 Q193.6719 45.4546 193.125 45.4546 Q192.4062 45.4546 191.9844 45.9468 Q191.5625 46.439 191.5625 47.5952 Q191.5625 48.8921 191.9922 49.4233 Q192.4219 49.9546 193.1562 49.9546 Q193.7031 49.9546 194.0547 49.6421 Q194.4062 49.3296 194.5469 48.5796 L196.4375 48.8921 Q196.1406 50.2046 195.3047 50.8687 Q194.4688 51.5327 193.0625 51.5327 Q191.4688 51.5327 190.5234 50.5249 Q189.5781 49.5171 189.5781 47.7358 Q189.5781 45.939 190.5312 44.939 Q191.4844 43.939 193.1094 43.939 Q194.4219 43.939 195.2109 44.5093 Q196 45.0796 196.3281 46.2515 ZM197.5625 47.6265 Q197.5625 46.6733 198.0312 45.7749 Q198.5 44.8765 199.3672 44.4077 Q200.2344 43.939 201.2969 43.939 Q202.9531 43.939 204 45.0093 Q205.0469 46.0796 205.0469 47.7046 Q205.0469 49.3608 203.9844 50.4468 Q202.9219 51.5327 201.3125 51.5327 Q200.3125 51.5327 199.4062 51.0796 Q198.5 50.6265 198.0312 49.7515 Q197.5625 48.8765 197.5625 47.6265 ZM199.5312 47.7358 Q199.5312 48.814 200.0469 49.3843 Q200.5625 49.9546 201.3125 49.9546 Q202.0625 49.9546 202.5703 49.3843 Q203.0781 48.814 203.0781 47.7202 Q203.0781 46.6577 202.5703 46.0796 Q202.0625 45.5015 201.3125 45.5015 Q200.5625 45.5015 200.0469 46.0796 Q199.5312 46.6577 199.5312 47.7358 ZM206.8594 44.0952 L208.625 44.0952 L208.625 45.0952 Q209.5781 43.939 210.8906 43.939 Q211.5938 43.939 212.1094 44.228 Q212.625 44.5171 212.9531 45.0952 Q213.4219 44.5171 213.9766 44.228 Q214.5312 43.939 215.1562 43.939 Q215.9531 43.939 216.5078 44.2593 Q217.0625 44.5796 217.3438 45.2202 Q217.5469 45.6733 217.5469 46.7202 L217.5469 51.3608 L215.625 51.3608 L215.625 47.2046 Q215.625 46.1265 215.4219 45.814 Q215.1562 45.4077 214.5938 45.4077 Q214.2031 45.4077 213.8438 45.6499 Q213.4844 45.8921 213.3281 46.3687 Q213.1719 46.8452 213.1719 47.8765 L213.1719 51.3608 L211.25 51.3608 L211.25 47.3765 Q211.25 46.3296 211.1484 46.0171 Q211.0469 45.7046 210.8281 45.5562 Q210.6094 45.4077 210.25 45.4077 Q209.7969 45.4077 209.4453 45.6499 Q209.0938 45.8921 208.9375 46.3374 Q208.7812 46.7827 208.7812 47.8296 L208.7812 51.3608 L206.8594 51.3608 L206.8594 44.0952 ZM218.8594 44.0952 L220.625 44.0952 L220.625 45.0952 Q221.5781 43.939 222.8906 43.939 Q223.5938 43.939 224.1094 44.228 Q224.625 44.5171 224.9531 45.0952 Q225.4219 44.5171 225.9766 44.228 Q226.5312 43.939 227.1562 43.939 Q227.9531 43.939 228.5078 44.2593 Q229.0625 44.5796 229.3438 45.2202 Q229.5469 45.6733 229.5469 46.7202 L229.5469 51.3608 L227.625 51.3608 L227.625 47.2046 Q227.625 46.1265 227.4219 45.814 Q227.1562 45.4077 226.5938 45.4077 Q226.2031 45.4077 225.8438 45.6499 Q225.4844 45.8921 225.3281 46.3687 Q225.1719 46.8452 225.1719 47.8765 L225.1719 51.3608 L223.25 51.3608 L223.25 47.3765 Q223.25 46.3296 223.1484 46.0171 Q223.0469 45.7046 222.8281 45.5562 Q222.6094 45.4077 222.25 45.4077 Q221.7969 45.4077 221.4453 45.6499 Q221.0938 45.8921 220.9375 46.3374 Q220.7812 46.7827 220.7812 47.8296 L220.7812 51.3608 L218.8594 51.3608 L218.8594 44.0952 ZM232.4375 46.314 L230.7031 46.0015 Q230.9844 44.9546 231.7031 44.4468 Q232.4219 43.939 233.8438 43.939 Q235.125 43.939 235.7578 44.2437 Q236.3906 44.5483 236.6406 45.0171 Q236.8906 45.4858 236.8906 46.7358 L236.875 48.9702 Q236.875 49.939 236.9688 50.3921 Q237.0625 50.8452 237.3125 51.3608 L235.4219 51.3608 Q235.3438 51.1733 235.2344 50.7983 Q235.1875 50.6265 235.1562 50.564 Q234.6719 51.0483 234.1094 51.2905 Q233.5469 51.5327 232.9062 51.5327 Q231.7969 51.5327 231.1484 50.9233 Q230.5 50.314 230.5 49.3765 Q230.5 48.7671 230.7969 48.2827 Q231.0938 47.7983 231.6172 47.5405 Q232.1406 47.2827 233.1406 47.0952 Q234.4844 46.8452 235.0156 46.6265 L235.0156 46.439 Q235.0156 45.8765 234.7422 45.6421 Q234.4688 45.4077 233.7031 45.4077 Q233.1875 45.4077 232.9062 45.6108 Q232.625 45.814 232.4375 46.314 ZM235.0156 47.8765 Q234.6406 48.0015 233.8438 48.1733 Q233.0469 48.3452 232.7969 48.5015 Q232.4219 48.7671 232.4219 49.1733 Q232.4219 49.5796 232.7188 49.8765 Q233.0156 50.1733 233.4844 50.1733 Q234 50.1733 234.4844 49.8296 Q234.8281 49.564 234.9375 49.189 Q235.0156 48.9546 235.0156 48.2515 L235.0156 47.8765 ZM245.6094 51.3608 L243.6875 51.3608 L243.6875 47.6577 Q243.6875 46.4858 243.5625 46.1343 Q243.4375 45.7827 243.1641 45.5952 Q242.8906 45.4077 242.5 45.4077 Q242 45.4077 241.6016 45.6812 Q241.2031 45.9546 241.0547 46.4077 Q240.9062 46.8608 240.9062 48.0796 L240.9062 51.3608 L238.9844 51.3608 L238.9844 44.0952 L240.7812 44.0952 L240.7812 45.1733 Q241.7188 43.939 243.1719 43.939 Q243.7969 43.939 244.3281 44.1655 Q244.8594 44.3921 245.125 44.7515 Q245.3906 45.1108 245.5 45.5562 Q245.6094 46.0015 245.6094 46.8452 L245.6094 51.3608 ZM254.6562 51.3608 L252.875 51.3608 L252.875 50.2983 Q252.4375 50.9233 251.8281 51.228 Q251.2188 51.5327 250.6094 51.5327 Q249.3594 51.5327 248.4688 50.5171 Q247.5781 49.5015 247.5781 47.7046 Q247.5781 45.8608 248.4453 44.8999 Q249.3125 43.939 250.6406 43.939 Q251.8594 43.939 252.75 44.9546 L252.75 41.3452 L254.6562 41.3452 L254.6562 51.3608 ZM249.5312 47.5796 Q249.5312 48.7358 249.8594 49.2515 Q250.3281 50.0015 251.1562 50.0015 Q251.8125 50.0015 252.2812 49.439 Q252.75 48.8765 252.75 47.7515 Q252.75 46.5015 252.2969 45.9546 Q251.8438 45.4077 251.1406 45.4077 Q250.4531 45.4077 249.9922 45.9468 Q249.5312 46.4858 249.5312 47.5796 ZM261.2031 49.0483 L263.125 49.3765 Q262.75 50.4233 261.9531 50.978 Q261.1562 51.5327 259.9688 51.5327 Q258.0781 51.5327 257.1562 50.2827 Q256.4375 49.2983 256.4375 47.7827 Q256.4375 45.9858 257.3828 44.9624 Q258.3281 43.939 259.7812 43.939 Q261.3906 43.939 262.3281 45.0093 Q263.2656 46.0796 263.2188 48.2827 L258.4062 48.2827 Q258.4375 49.1421 258.8828 49.6187 Q259.3281 50.0952 259.9844 50.0952 Q260.4375 50.0952 260.7422 49.8452 Q261.0469 49.5952 261.2031 49.0483 ZM261.3125 47.1108 Q261.2969 46.2671 260.8906 45.8374 Q260.4844 45.4077 259.8906 45.4077 Q259.2656 45.4077 258.8438 45.8608 Q258.4375 46.3296 258.4531 47.1108 L261.3125 47.1108 ZM276.6562 51.3608 L274.875 51.3608 L274.875 50.2983 Q274.4375 50.9233 273.8281 51.228 Q273.2188 51.5327 272.6094 51.5327 Q271.3594 51.5327 270.4688 50.5171 Q269.5781 49.5015 269.5781 47.7046 Q269.5781 45.8608 270.4453 44.8999 Q271.3125 43.939 272.6406 43.939 Q273.8594 43.939 274.75 44.9546 L274.75 41.3452 L276.6562 41.3452 L276.6562 51.3608 ZM271.5312 47.5796 Q271.5312 48.7358 271.8594 49.2515 Q272.3281 50.0015 273.1562 50.0015 Q273.8125 50.0015 274.2812 49.439 Q274.75 48.8765 274.75 47.7515 Q274.75 46.5015 274.2969 45.9546 Q273.8438 45.4077 273.1406 45.4077 Q272.4531 45.4077 271.9922 45.9468 Q271.5312 46.4858 271.5312 47.5796 ZM283.2031 49.0483 L285.125 49.3765 Q284.75 50.4233 283.9531 50.978 Q283.1562 51.5327 281.9688 51.5327 Q280.0781 51.5327 279.1562 50.2827 Q278.4375 49.2983 278.4375 47.7827 Q278.4375 45.9858 279.3828 44.9624 Q280.3281 43.939 281.7812 43.939 Q283.3906 43.939 284.3281 45.0093 Q285.2656 46.0796 285.2188 48.2827 L280.4062 48.2827 Q280.4375 49.1421 280.8828 49.6187 Q281.3281 50.0952 281.9844 50.0952 Q282.4375 50.0952 282.7422 49.8452 Q283.0469 49.5952 283.2031 49.0483 ZM283.3125 47.1108 Q283.2969 46.2671 282.8906 45.8374 Q282.4844 45.4077 281.8906 45.4077 Q281.2656 45.4077 280.8438 45.8608 Q280.4375 46.3296 280.4531 47.1108 L283.3125 47.1108 ZM294 51.3608 L291.0781 44.0952 L293.0938 44.0952 L294.4531 47.7983 L294.8594 49.0483 Q295.0156 48.564 295.0469 48.4233 Q295.1562 48.1108 295.2656 47.7983 L296.6406 44.0952 L298.6094 44.0952 L295.7344 51.3608 L294 51.3608 ZM302.4375 46.314 L300.7031 46.0015 Q300.9844 44.9546 301.7031 44.4468 Q302.4219 43.939 303.8438 43.939 Q305.125 43.939 305.7578 44.2437 Q306.3906 44.5483 306.6406 45.0171 Q306.8906 45.4858 306.8906 46.7358 L306.875 48.9702 Q306.875 49.939 306.9688 50.3921 Q307.0625 50.8452 307.3125 51.3608 L305.4219 51.3608 Q305.3438 51.1733 305.2344 50.7983 Q305.1875 50.6265 305.1562 50.564 Q304.6719 51.0483 304.1094 51.2905 Q303.5469 51.5327 302.9062 51.5327 Q301.7969 51.5327 301.1484 50.9233 Q300.5 50.314 300.5 49.3765 Q300.5 48.7671 300.7969 48.2827 Q301.0938 47.7983 301.6172 47.5405 Q302.1406 47.2827 303.1406 47.0952 Q304.4844 46.8452 305.0156 46.6265 L305.0156 46.439 Q305.0156 45.8765 304.7422 45.6421 Q304.4688 45.4077 303.7031 45.4077 Q303.1875 45.4077 302.9062 45.6108 Q302.625 45.814 302.4375 46.314 ZM305.0156 47.8765 Q304.6406 48.0015 303.8438 48.1733 Q303.0469 48.3452 302.7969 48.5015 Q302.4219 48.7671 302.4219 49.1733 Q302.4219 49.5796 302.7188 49.8765 Q303.0156 50.1733 303.4844 50.1733 Q304 50.1733 304.4844 49.8296 Q304.8281 49.564 304.9375 49.189 Q305.0156 48.9546 305.0156 48.2515 L305.0156 47.8765 ZM315.6094 51.3608 L313.6875 51.3608 L313.6875 47.6577 Q313.6875 46.4858 313.5625 46.1343 Q313.4375 45.7827 313.1641 45.5952 Q312.8906 45.4077 312.5 45.4077 Q312 45.4077 311.6016 45.6812 Q311.2031 45.9546 311.0547 46.4077 Q310.9062 46.8608 310.9062 48.0796 L310.9062 51.3608 L308.9844 51.3608 L308.9844 44.0952 L310.7812 44.0952 L310.7812 45.1733 Q311.7188 43.939 313.1719 43.939 Q313.7969 43.939 314.3281 44.1655 Q314.8594 44.3921 315.125 44.7515 Q315.3906 45.1108 315.5 45.5562 Q315.6094 46.0015 315.6094 46.8452 L315.6094 51.3608 ZM324.6094 51.3608 L322.6875 51.3608 L322.6875 47.6577 Q322.6875 46.4858 322.5625 46.1343 Q322.4375 45.7827 322.1641 45.5952 Q321.8906 45.4077 321.5 45.4077 Q321 45.4077 320.6016 45.6812 Q320.2031 45.9546 320.0547 46.4077 Q319.9062 46.8608 319.9062 48.0796 L319.9062 51.3608 L317.9844 51.3608 L317.9844 44.0952 L319.7812 44.0952 L319.7812 45.1733 Q320.7188 43.939 322.1719 43.939 Q322.7969 43.939 323.3281 44.1655 Q323.8594 44.3921 324.125 44.7515 Q324.3906 45.1108 324.5 45.5562 Q324.6094 46.0015 324.6094 46.8452 L324.6094 51.3608 ZM331.2031 49.0483 L333.125 49.3765 Q332.75 50.4233 331.9531 50.978 Q331.1562 51.5327 329.9688 51.5327 Q328.0781 51.5327 327.1562 50.2827 Q326.4375 49.2983 326.4375 47.7827 Q326.4375 45.9858 327.3828 44.9624 Q328.3281 43.939 329.7812 43.939 Q331.3906 43.939 332.3281 45.0093 Q333.2656 46.0796 333.2188 48.2827 L328.4062 48.2827 Q328.4375 49.1421 328.8828 49.6187 Q329.3281 50.0952 329.9844 50.0952 Q330.4375 50.0952 330.7422 49.8452 Q331.0469 49.5952 331.2031 49.0483 ZM331.3125 47.1108 Q331.2969 46.2671 330.8906 45.8374 Q330.4844 45.4077 329.8906 45.4077 Q329.2656 45.4077 328.8438 45.8608 Q328.4375 46.3296 328.4531 47.1108 L331.3125 47.1108 Z"
         clip-path="url(#clipPath1)"
         stroke="none"
         id="path67" />
      <ellipse
         clip-path="url(#clipPath1)"
         fill="rgb(178,178,178)"
         rx="94.5"
         cx="244.5"
         ry="31.5"
         cy="104.5"
         stroke="none"
         id="ellipse69" />
      <ellipse
         clip-path="url(#clipPath1)"
         fill="url(#linearGradient2)"
         rx="94.5"
         cx="241.5"
         ry="31.5"
         cy="101.5"
         stroke="none"
         id="ellipse71" />
      <ellipse
         clip-path="url(#clipPath1)"
         fill="none"
         rx="94.5"
         cx="241.5"
         ry="31.5"
         cy="101.5"
         stroke="rgb(102,102,71)"
         id="ellipse73" />
      <path
         fill="black"
         d="M165.8125 98.4978 L165.8125 90.6228 L169.1562 90.6228 Q170.4219 90.6228 170.9922 90.8337 Q171.5625 91.0447 171.9062 91.5916 Q172.25 92.1384 172.25 92.8259 Q172.25 93.7166 171.7266 94.2947 Q171.2031 94.8728 170.1719 95.0291 Q170.6875 95.3259 171.0234 95.6853 Q171.3594 96.0447 171.9219 96.9666 L172.8906 98.4978 L170.9844 98.4978 L169.8281 96.7791 Q169.2188 95.8728 168.9922 95.6306 Q168.7656 95.3884 168.5156 95.3025 Q168.2656 95.2166 167.7188 95.2166 L167.3906 95.2166 L167.3906 98.4978 L165.8125 98.4978 ZM167.3906 93.9509 L168.5781 93.9509 Q169.7188 93.9509 170 93.8572 Q170.2812 93.7634 170.4453 93.5291 Q170.6094 93.2947 170.6094 92.9353 Q170.6094 92.5291 170.3984 92.2869 Q170.1875 92.0447 169.7969 91.9822 Q169.6094 91.9509 168.6406 91.9509 L167.3906 91.9509 L167.3906 93.9509 ZM176.0938 96.6853 L177.5938 96.9353 Q177.3125 97.7634 176.6875 98.1931 Q176.0625 98.6228 175.1094 98.6228 Q173.625 98.6228 172.9062 97.6541 Q172.3438 96.8728 172.3438 95.6853 Q172.3438 94.2634 173.0859 93.4666 Q173.8281 92.6697 174.9688 92.6697 Q176.2344 92.6697 176.9688 93.5056 Q177.7031 94.3416 177.6719 96.0759 L173.8906 96.0759 Q173.9062 96.7478 174.2578 97.1228 Q174.6094 97.4978 175.125 97.4978 Q175.4844 97.4978 175.7266 97.3025 Q175.9688 97.1072 176.0938 96.6853 ZM176.1719 95.1541 Q176.1562 94.4978 175.8359 94.1619 Q175.5156 93.8259 175.0625 93.8259 Q174.5625 93.8259 174.2344 94.1853 Q173.9219 94.5447 173.9219 95.1541 L176.1719 95.1541 ZM174.0469 91.4978 L174.7969 89.8884 L176.4844 89.8884 L175 91.4978 L174.0469 91.4978 ZM179.6562 98.8728 L181.375 99.0759 Q181.4219 99.3884 181.5781 99.4978 Q181.7812 99.6541 182.25 99.6541 Q182.8438 99.6541 183.1406 99.4822 Q183.3281 99.3572 183.4375 99.1072 Q183.5 98.9041 183.5 98.4041 L183.5 97.5759 Q182.8281 98.4978 181.7969 98.4978 Q180.6562 98.4978 179.9844 97.5291 Q179.4531 96.7634 179.4531 95.6072 Q179.4531 94.1853 180.1406 93.4275 Q180.8281 92.6697 181.8594 92.6697 Q182.9219 92.6697 183.6094 93.5916 L183.6094 92.7947 L185.0156 92.7947 L185.0156 97.9197 Q185.0156 98.9197 184.8516 99.4197 Q184.6875 99.9197 184.3828 100.2087 Q184.0781 100.4978 183.5781 100.6541 Q183.0781 100.8103 182.3125 100.8103 Q180.8594 100.8103 180.25 100.3181 Q179.6406 99.8259 179.6406 99.0603 Q179.6406 98.9822 179.6562 98.8728 ZM181 95.5291 Q181 96.4353 181.3516 96.8572 Q181.7031 97.2791 182.2188 97.2791 Q182.7656 97.2791 183.1484 96.8494 Q183.5312 96.4197 183.5312 95.5603 Q183.5312 94.6853 183.1641 94.2556 Q182.7969 93.8259 182.25 93.8259 Q181.7031 93.8259 181.3516 94.2478 Q181 94.6697 181 95.5291 ZM190.5469 98.4978 L190.5469 97.6384 Q190.2344 98.1072 189.7266 98.365 Q189.2188 98.6228 188.6562 98.6228 Q188.0781 98.6228 187.625 98.3728 Q187.1719 98.1228 186.9609 97.6619 Q186.75 97.2009 186.75 96.4041 L186.75 92.7947 L188.2656 92.7947 L188.2656 95.4197 Q188.2656 96.6228 188.3516 96.8884 Q188.4375 97.1541 188.6562 97.3181 Q188.875 97.4822 189.2188 97.4822 Q189.5938 97.4822 189.9062 97.2712 Q190.2188 97.0603 190.3281 96.74 Q190.4375 96.4197 190.4375 95.2009 L190.4375 92.7947 L191.9531 92.7947 L191.9531 98.4978 L190.5469 98.4978 ZM193.7969 98.4978 L193.7969 90.6228 L195.2969 90.6228 L195.2969 98.4978 L193.7969 98.4978 ZM200.0938 96.6853 L201.5938 96.9353 Q201.3125 97.7634 200.6875 98.1931 Q200.0625 98.6228 199.1094 98.6228 Q197.625 98.6228 196.9062 97.6541 Q196.3438 96.8728 196.3438 95.6853 Q196.3438 94.2634 197.0859 93.4666 Q197.8281 92.6697 198.9688 92.6697 Q200.2344 92.6697 200.9688 93.5056 Q201.7031 94.3416 201.6719 96.0759 L197.8906 96.0759 Q197.9062 96.7478 198.2578 97.1228 Q198.6094 97.4978 199.125 97.4978 Q199.4844 97.4978 199.7266 97.3025 Q199.9688 97.1072 200.0938 96.6853 ZM200.1719 95.1541 Q200.1562 94.4978 199.8359 94.1619 Q199.5156 93.8259 199.0625 93.8259 Q198.5625 93.8259 198.2344 94.1853 Q197.9219 94.5447 197.9219 95.1541 L200.1719 95.1541 ZM205.2344 98.4978 L203.7188 98.4978 L203.7188 92.7947 L205.125 92.7947 L205.125 93.6072 Q205.4844 93.0291 205.7734 92.8494 Q206.0625 92.6697 206.4219 92.6697 Q206.9375 92.6697 207.4219 92.9509 L206.9531 94.2634 Q206.5781 94.0134 206.25 94.0134 Q205.9219 94.0134 205.7031 94.1931 Q205.4844 94.3728 205.3594 94.8259 Q205.2344 95.2791 205.2344 96.7322 L205.2344 98.4978 ZM211.7969 98.4978 L211.7969 90.6228 L213.2969 90.6228 L213.2969 98.4978 L211.7969 98.4978 ZM218.0938 96.6853 L219.5938 96.9353 Q219.3125 97.7634 218.6875 98.1931 Q218.0625 98.6228 217.1094 98.6228 Q215.625 98.6228 214.9062 97.6541 Q214.3438 96.8728 214.3438 95.6853 Q214.3438 94.2634 215.0859 93.4666 Q215.8281 92.6697 216.9688 92.6697 Q218.2344 92.6697 218.9688 93.5056 Q219.7031 94.3416 219.6719 96.0759 L215.8906 96.0759 Q215.9062 96.7478 216.2578 97.1228 Q216.6094 97.4978 217.125 97.4978 Q217.4844 97.4978 217.7266 97.3025 Q217.9688 97.1072 218.0938 96.6853 ZM218.1719 95.1541 Q218.1562 94.4978 217.8359 94.1619 Q217.5156 93.8259 217.0625 93.8259 Q216.5625 93.8259 216.2344 94.1853 Q215.9219 94.5447 215.9219 95.1541 L218.1719 95.1541 ZM230.0156 98.4978 L228.625 98.4978 L228.625 97.6541 Q228.2656 98.1541 227.7891 98.3884 Q227.3125 98.6228 226.8438 98.6228 Q225.8594 98.6228 225.1562 97.8337 Q224.4531 97.0447 224.4531 95.6228 Q224.4531 94.1697 225.1328 93.4197 Q225.8125 92.6697 226.8594 92.6697 Q227.8125 92.6697 228.5156 93.4666 L228.5156 90.6228 L230.0156 90.6228 L230.0156 98.4978 ZM226 95.5291 Q226 96.4353 226.25 96.8416 Q226.6094 97.4353 227.2656 97.4353 Q227.7812 97.4353 228.1484 96.99 Q228.5156 96.5447 228.5156 95.6697 Q228.5156 94.6853 228.1641 94.2556 Q227.8125 93.8259 227.25 93.8259 Q226.7188 93.8259 226.3594 94.2478 Q226 94.6697 226 95.5291 ZM235.0938 96.6853 L236.5938 96.9353 Q236.3125 97.7634 235.6875 98.1931 Q235.0625 98.6228 234.1094 98.6228 Q232.625 98.6228 231.9062 97.6541 Q231.3438 96.8728 231.3438 95.6853 Q231.3438 94.2634 232.0859 93.4666 Q232.8281 92.6697 233.9688 92.6697 Q235.2344 92.6697 235.9688 93.5056 Q236.7031 94.3416 236.6719 96.0759 L232.8906 96.0759 Q232.9062 96.7478 233.2578 97.1228 Q233.6094 97.4978 234.125 97.4978 Q234.4844 97.4978 234.7266 97.3025 Q234.9688 97.1072 235.0938 96.6853 ZM235.1719 95.1541 Q235.1562 94.4978 234.8359 94.1619 Q234.5156 93.8259 234.0625 93.8259 Q233.5625 93.8259 233.2344 94.1853 Q232.9219 94.5447 232.9219 95.1541 L235.1719 95.1541 ZM233.0469 91.4978 L233.7969 89.8884 L235.4844 89.8884 L234 91.4978 L233.0469 91.4978 ZM238.7188 98.4978 L238.7188 90.6228 L240.2344 90.6228 L240.2344 93.4666 Q240.9375 92.6697 241.8906 92.6697 Q242.9375 92.6697 243.6172 93.4197 Q244.2969 94.1697 244.2969 95.5916 Q244.2969 97.0447 243.6016 97.8337 Q242.9062 98.6228 241.9062 98.6228 Q241.4219 98.6228 240.9453 98.3806 Q240.4688 98.1384 240.125 97.6541 L240.125 98.4978 L238.7188 98.4978 ZM240.2188 95.5291 Q240.2188 96.4041 240.5 96.8259 Q240.8906 97.4353 241.5469 97.4353 Q242.0469 97.4353 242.3984 97.0056 Q242.75 96.5759 242.75 95.6541 Q242.75 94.6853 242.3984 94.2556 Q242.0469 93.8259 241.4844 93.8259 Q240.9375 93.8259 240.5781 94.2478 Q240.2188 94.6697 240.2188 95.5291 ZM245.7969 92.0134 L245.7969 90.6228 L247.2969 90.6228 L247.2969 92.0134 L245.7969 92.0134 ZM245.7969 98.4978 L245.7969 92.7947 L247.2969 92.7947 L247.2969 98.4978 L245.7969 98.4978 ZM251.4062 92.7947 L251.4062 93.9978 L250.375 93.9978 L250.375 96.2947 Q250.375 96.9978 250.4062 97.115 Q250.4375 97.2322 250.5391 97.3025 Q250.6406 97.3728 250.7969 97.3728 Q251 97.3728 251.4062 97.2322 L251.5312 98.4041 Q251 98.6228 250.3438 98.6228 Q249.9219 98.6228 249.5938 98.49 Q249.2656 98.3572 249.1172 98.1384 Q248.9688 97.9197 248.9062 97.5447 Q248.8594 97.2791 248.8594 96.4822 L248.8594 93.9978 L248.1719 93.9978 L248.1719 92.7947 L248.8594 92.7947 L248.8594 91.6541 L250.375 90.7791 L250.375 92.7947 L251.4062 92.7947 ZM261.0156 98.4978 L259.625 98.4978 L259.625 97.6541 Q259.2656 98.1541 258.7891 98.3884 Q258.3125 98.6228 257.8438 98.6228 Q256.8594 98.6228 256.1562 97.8337 Q255.4531 97.0447 255.4531 95.6228 Q255.4531 94.1697 256.1328 93.4197 Q256.8125 92.6697 257.8594 92.6697 Q258.8125 92.6697 259.5156 93.4666 L259.5156 90.6228 L261.0156 90.6228 L261.0156 98.4978 ZM257 95.5291 Q257 96.4353 257.25 96.8416 Q257.6094 97.4353 258.2656 97.4353 Q258.7812 97.4353 259.1484 96.99 Q259.5156 96.5447 259.5156 95.6697 Q259.5156 94.6853 259.1641 94.2556 Q258.8125 93.8259 258.25 93.8259 Q257.7188 93.8259 257.3594 94.2478 Q257 94.6697 257 95.5291 ZM262.7812 93.4197 L262.5 91.9509 L262.5 90.6228 L264.1406 90.6228 L264.1406 91.9509 L263.8906 93.4197 L262.7812 93.4197 ZM269.0938 96.6853 L270.5938 96.9353 Q270.3125 97.7634 269.6875 98.1931 Q269.0625 98.6228 268.1094 98.6228 Q266.625 98.6228 265.9062 97.6541 Q265.3438 96.8728 265.3438 95.6853 Q265.3438 94.2634 266.0859 93.4666 Q266.8281 92.6697 267.9688 92.6697 Q269.2344 92.6697 269.9688 93.5056 Q270.7031 94.3416 270.6719 96.0759 L266.8906 96.0759 Q266.9062 96.7478 267.2578 97.1228 Q267.6094 97.4978 268.125 97.4978 Q268.4844 97.4978 268.7266 97.3025 Q268.9688 97.1072 269.0938 96.6853 ZM269.1719 95.1541 Q269.1562 94.4978 268.8359 94.1619 Q268.5156 93.8259 268.0625 93.8259 Q267.5625 93.8259 267.2344 94.1853 Q266.9219 94.5447 266.9219 95.1541 L269.1719 95.1541 ZM273.9219 94.5291 L272.5469 94.2791 Q272.7812 93.4666 273.3438 93.0681 Q273.9062 92.6697 275.0156 92.6697 Q276.0312 92.6697 276.5234 92.9041 Q277.0156 93.1384 277.2188 93.5056 Q277.4219 93.8728 277.4219 94.8572 L277.4062 96.6228 Q277.4062 97.3728 277.4766 97.7322 Q277.5469 98.0916 277.75 98.4978 L276.25 98.4978 Q276.1875 98.3416 276.1094 98.0447 Q276.0781 97.9197 276.0625 97.8728 Q275.6719 98.2478 275.2266 98.4353 Q274.7812 98.6228 274.2812 98.6228 Q273.4062 98.6228 272.8984 98.1462 Q272.3906 97.6697 272.3906 96.9353 Q272.3906 96.4509 272.625 96.0759 Q272.8594 95.7009 273.2734 95.4978 Q273.6875 95.2947 274.4688 95.1384 Q275.5312 94.9509 275.9375 94.7791 L275.9375 94.6228 Q275.9375 94.1853 275.7188 94.0056 Q275.5 93.8259 274.9062 93.8259 Q274.5156 93.8259 274.2891 93.9822 Q274.0625 94.1384 273.9219 94.5291 ZM275.9375 95.7634 Q275.6406 95.8572 275.0156 95.99 Q274.3906 96.1228 274.2031 96.2478 Q273.9062 96.4666 273.9062 96.7791 Q273.9062 97.1072 274.1406 97.3337 Q274.375 97.5603 274.7344 97.5603 Q275.1406 97.5603 275.5156 97.2947 Q275.7969 97.0916 275.875 96.7947 Q275.9375 96.6072 275.9375 96.0603 L275.9375 95.7634 ZM282.5469 98.4978 L282.5469 97.6384 Q282.2344 98.1072 281.7266 98.365 Q281.2188 98.6228 280.6562 98.6228 Q280.0781 98.6228 279.625 98.3728 Q279.1719 98.1228 278.9609 97.6619 Q278.75 97.2009 278.75 96.4041 L278.75 92.7947 L280.2656 92.7947 L280.2656 95.4197 Q280.2656 96.6228 280.3516 96.8884 Q280.4375 97.1541 280.6562 97.3181 Q280.875 97.4822 281.2188 97.4822 Q281.5938 97.4822 281.9062 97.2712 Q282.2188 97.0603 282.3281 96.74 Q282.4375 96.4197 282.4375 95.2009 L282.4375 92.7947 L283.9531 92.7947 L283.9531 98.4978 L282.5469 98.4978 ZM294.0156 98.4978 L292.625 98.4978 L292.625 97.6541 Q292.2656 98.1541 291.7891 98.3884 Q291.3125 98.6228 290.8438 98.6228 Q289.8594 98.6228 289.1562 97.8337 Q288.4531 97.0447 288.4531 95.6228 Q288.4531 94.1697 289.1328 93.4197 Q289.8125 92.6697 290.8594 92.6697 Q291.8125 92.6697 292.5156 93.4666 L292.5156 90.6228 L294.0156 90.6228 L294.0156 98.4978 ZM290 95.5291 Q290 96.4353 290.25 96.8416 Q290.6094 97.4353 291.2656 97.4353 Q291.7812 97.4353 292.1484 96.99 Q292.5156 96.5447 292.5156 95.6697 Q292.5156 94.6853 292.1641 94.2556 Q291.8125 93.8259 291.25 93.8259 Q290.7188 93.8259 290.3594 94.2478 Q290 94.6697 290 95.5291 ZM296.9219 94.5291 L295.5469 94.2791 Q295.7812 93.4666 296.3438 93.0681 Q296.9062 92.6697 298.0156 92.6697 Q299.0312 92.6697 299.5234 92.9041 Q300.0156 93.1384 300.2188 93.5056 Q300.4219 93.8728 300.4219 94.8572 L300.4062 96.6228 Q300.4062 97.3728 300.4766 97.7322 Q300.5469 98.0916 300.75 98.4978 L299.25 98.4978 Q299.1875 98.3416 299.1094 98.0447 Q299.0781 97.9197 299.0625 97.8728 Q298.6719 98.2478 298.2266 98.4353 Q297.7812 98.6228 297.2812 98.6228 Q296.4062 98.6228 295.8984 98.1462 Q295.3906 97.6697 295.3906 96.9353 Q295.3906 96.4509 295.625 96.0759 Q295.8594 95.7009 296.2734 95.4978 Q296.6875 95.2947 297.4688 95.1384 Q298.5312 94.9509 298.9375 94.7791 L298.9375 94.6228 Q298.9375 94.1853 298.7188 94.0056 Q298.5 93.8259 297.9062 93.8259 Q297.5156 93.8259 297.2891 93.9822 Q297.0625 94.1384 296.9219 94.5291 ZM298.9375 95.7634 Q298.6406 95.8572 298.0156 95.99 Q297.3906 96.1228 297.2031 96.2478 Q296.9062 96.4666 296.9062 96.7791 Q296.9062 97.1072 297.1406 97.3337 Q297.375 97.5603 297.7344 97.5603 Q298.1406 97.5603 298.5156 97.2947 Q298.7969 97.0916 298.875 96.7947 Q298.9375 96.6072 298.9375 96.0603 L298.9375 95.7634 ZM306.9844 98.4978 L305.4688 98.4978 L305.4688 95.5916 Q305.4688 94.6697 305.375 94.3962 Q305.2812 94.1228 305.0625 93.9744 Q304.8438 93.8259 304.5312 93.8259 Q304.1406 93.8259 303.8281 94.0369 Q303.5156 94.2478 303.3984 94.5994 Q303.2812 94.9509 303.2812 95.9197 L303.2812 98.4978 L301.7812 98.4978 L301.7812 92.7947 L303.1875 92.7947 L303.1875 93.6384 Q303.9219 92.6697 305.0625 92.6697 Q305.5625 92.6697 305.9766 92.8494 Q306.3906 93.0291 306.6016 93.3025 Q306.8125 93.5759 306.8984 93.9353 Q306.9844 94.2947 306.9844 94.9509 L306.9844 98.4978 ZM308.2656 96.8728 L309.7656 96.6384 Q309.875 97.0759 310.1641 97.3025 Q310.4531 97.5291 310.9844 97.5291 Q311.5781 97.5291 311.875 97.3259 Q312.0781 97.1697 312.0781 96.9197 Q312.0781 96.7478 311.9688 96.6384 Q311.8438 96.5291 311.4531 96.4353 Q309.6406 96.0291 309.1406 95.7009 Q308.4688 95.2322 308.4688 94.4197 Q308.4688 93.6697 309.0547 93.1697 Q309.6406 92.6697 310.875 92.6697 Q312.0469 92.6697 312.6094 93.0447 Q313.1719 93.4197 313.3906 94.1697 L311.9688 94.4353 Q311.875 94.1072 311.625 93.9275 Q311.375 93.7478 310.8906 93.7478 Q310.2969 93.7478 310.0469 93.9197 Q309.875 94.0291 309.875 94.2166 Q309.875 94.3884 310.0156 94.4978 Q310.2188 94.6541 311.4297 94.9275 Q312.6406 95.2009 313.1094 95.5916 Q313.5938 95.9978 313.5938 96.7166 Q313.5938 97.4978 312.9375 98.0603 Q312.2812 98.6228 310.9844 98.6228 Q309.8281 98.6228 309.1484 98.1541 Q308.4688 97.6853 308.2656 96.8728 Z"
         clip-path="url(#clipPath1)"
         stroke="none"
         id="path75" />
      <path
         fill="black"
         d="M201.5469 110.4978 L201.5469 109.6384 Q201.2344 110.1072 200.7266 110.365 Q200.2188 110.6228 199.6562 110.6228 Q199.0781 110.6228 198.625 110.3728 Q198.1719 110.1228 197.9609 109.6619 Q197.75 109.2009 197.75 108.4041 L197.75 104.7947 L199.2656 104.7947 L199.2656 107.4197 Q199.2656 108.6228 199.3516 108.8884 Q199.4375 109.1541 199.6562 109.3181 Q199.875 109.4822 200.2188 109.4822 Q200.5938 109.4822 200.9062 109.2712 Q201.2188 109.0603 201.3281 108.74 Q201.4375 108.4197 201.4375 107.2009 L201.4375 104.7947 L202.9531 104.7947 L202.9531 110.4978 L201.5469 110.4978 ZM209.9844 110.4978 L208.4688 110.4978 L208.4688 107.5916 Q208.4688 106.6697 208.375 106.3962 Q208.2812 106.1228 208.0625 105.9744 Q207.8438 105.8259 207.5312 105.8259 Q207.1406 105.8259 206.8281 106.0369 Q206.5156 106.2478 206.3984 106.5994 Q206.2812 106.9509 206.2812 107.9197 L206.2812 110.4978 L204.7812 110.4978 L204.7812 104.7947 L206.1875 104.7947 L206.1875 105.6384 Q206.9219 104.6697 208.0625 104.6697 Q208.5625 104.6697 208.9766 104.8494 Q209.3906 105.0291 209.6016 105.3025 Q209.8125 105.5759 209.8984 105.9353 Q209.9844 106.2947 209.9844 106.9509 L209.9844 110.4978 ZM215.0938 108.6853 L216.5938 108.9353 Q216.3125 109.7634 215.6875 110.1931 Q215.0625 110.6228 214.1094 110.6228 Q212.625 110.6228 211.9062 109.6541 Q211.3438 108.8728 211.3438 107.6853 Q211.3438 106.2634 212.0859 105.4666 Q212.8281 104.6697 213.9688 104.6697 Q215.2344 104.6697 215.9688 105.5056 Q216.7031 106.3416 216.6719 108.0759 L212.8906 108.0759 Q212.9062 108.7478 213.2578 109.1228 Q213.6094 109.4978 214.125 109.4978 Q214.4844 109.4978 214.7266 109.3025 Q214.9688 109.1072 215.0938 108.6853 ZM215.1719 107.1541 Q215.1562 106.4978 214.8359 106.1619 Q214.5156 105.8259 214.0625 105.8259 Q213.5625 105.8259 213.2344 106.1853 Q212.9219 106.5447 212.9219 107.1541 L215.1719 107.1541 ZM226.7656 106.4822 L225.2812 106.7478 Q225.2031 106.3103 224.9375 106.0837 Q224.6719 105.8572 224.25 105.8572 Q223.6875 105.8572 223.3516 106.24 Q223.0156 106.6228 223.0156 107.5447 Q223.0156 108.5603 223.3516 108.9822 Q223.6875 109.4041 224.2656 109.4041 Q224.7031 109.4041 224.9766 109.1541 Q225.25 108.9041 225.3594 108.3103 L226.8438 108.5603 Q226.6094 109.5916 225.9531 110.1072 Q225.2969 110.6228 224.2031 110.6228 Q222.9375 110.6228 222.1953 109.8337 Q221.4531 109.0447 221.4531 107.6541 Q221.4531 106.2322 222.2031 105.4509 Q222.9531 104.6697 224.2188 104.6697 Q225.2656 104.6697 225.8828 105.115 Q226.5 105.5603 226.7656 106.4822 ZM228.9219 106.5291 L227.5469 106.2791 Q227.7812 105.4666 228.3438 105.0681 Q228.9062 104.6697 230.0156 104.6697 Q231.0312 104.6697 231.5234 104.9041 Q232.0156 105.1384 232.2188 105.5056 Q232.4219 105.8728 232.4219 106.8572 L232.4062 108.6228 Q232.4062 109.3728 232.4766 109.7322 Q232.5469 110.0916 232.75 110.4978 L231.25 110.4978 Q231.1875 110.3416 231.1094 110.0447 Q231.0781 109.9197 231.0625 109.8728 Q230.6719 110.2478 230.2266 110.4353 Q229.7812 110.6228 229.2812 110.6228 Q228.4062 110.6228 227.8984 110.1462 Q227.3906 109.6697 227.3906 108.9353 Q227.3906 108.4509 227.625 108.0759 Q227.8594 107.7009 228.2734 107.4978 Q228.6875 107.2947 229.4688 107.1384 Q230.5312 106.9509 230.9375 106.7791 L230.9375 106.6228 Q230.9375 106.1853 230.7188 106.0056 Q230.5 105.8259 229.9062 105.8259 Q229.5156 105.8259 229.2891 105.9822 Q229.0625 106.1384 228.9219 106.5291 ZM230.9375 107.7634 Q230.6406 107.8572 230.0156 107.99 Q229.3906 108.1228 229.2031 108.2478 Q228.9062 108.4666 228.9062 108.7791 Q228.9062 109.1072 229.1406 109.3337 Q229.375 109.5603 229.7344 109.5603 Q230.1406 109.5603 230.5156 109.2947 Q230.7969 109.0916 230.875 108.7947 Q230.9375 108.6072 230.9375 108.0603 L230.9375 107.7634 ZM238.9844 110.4978 L237.4688 110.4978 L237.4688 107.5916 Q237.4688 106.6697 237.375 106.3962 Q237.2812 106.1228 237.0625 105.9744 Q236.8438 105.8259 236.5312 105.8259 Q236.1406 105.8259 235.8281 106.0369 Q235.5156 106.2478 235.3984 106.5994 Q235.2812 106.9509 235.2812 107.9197 L235.2812 110.4978 L233.7812 110.4978 L233.7812 104.7947 L235.1875 104.7947 L235.1875 105.6384 Q235.9219 104.6697 237.0625 104.6697 Q237.5625 104.6697 237.9766 104.8494 Q238.3906 105.0291 238.6016 105.3025 Q238.8125 105.5759 238.8984 105.9353 Q238.9844 106.2947 238.9844 106.9509 L238.9844 110.4978 ZM241.9219 106.5291 L240.5469 106.2791 Q240.7812 105.4666 241.3438 105.0681 Q241.9062 104.6697 243.0156 104.6697 Q244.0312 104.6697 244.5234 104.9041 Q245.0156 105.1384 245.2188 105.5056 Q245.4219 105.8728 245.4219 106.8572 L245.4062 108.6228 Q245.4062 109.3728 245.4766 109.7322 Q245.5469 110.0916 245.75 110.4978 L244.25 110.4978 Q244.1875 110.3416 244.1094 110.0447 Q244.0781 109.9197 244.0625 109.8728 Q243.6719 110.2478 243.2266 110.4353 Q242.7812 110.6228 242.2812 110.6228 Q241.4062 110.6228 240.8984 110.1462 Q240.3906 109.6697 240.3906 108.9353 Q240.3906 108.4509 240.625 108.0759 Q240.8594 107.7009 241.2734 107.4978 Q241.6875 107.2947 242.4688 107.1384 Q243.5312 106.9509 243.9375 106.7791 L243.9375 106.6228 Q243.9375 106.1853 243.7188 106.0056 Q243.5 105.8259 242.9062 105.8259 Q242.5156 105.8259 242.2891 105.9822 Q242.0625 106.1384 241.9219 106.5291 ZM243.9375 107.7634 Q243.6406 107.8572 243.0156 107.99 Q242.3906 108.1228 242.2031 108.2478 Q241.9062 108.4666 241.9062 108.7791 Q241.9062 109.1072 242.1406 109.3337 Q242.375 109.5603 242.7344 109.5603 Q243.1406 109.5603 243.5156 109.2947 Q243.7969 109.0916 243.875 108.7947 Q243.9375 108.6072 243.9375 108.0603 L243.9375 107.7634 ZM246.7969 110.4978 L246.7969 102.6228 L248.2969 102.6228 L248.2969 110.4978 L246.7969 110.4978 ZM249.7969 104.0134 L249.7969 102.6228 L251.2969 102.6228 L251.2969 104.0134 L249.7969 104.0134 ZM249.7969 110.4978 L249.7969 104.7947 L251.2969 104.7947 L251.2969 110.4978 L249.7969 110.4978 ZM252.2656 108.8728 L253.7656 108.6384 Q253.875 109.0759 254.1641 109.3025 Q254.4531 109.5291 254.9844 109.5291 Q255.5781 109.5291 255.875 109.3259 Q256.0781 109.1697 256.0781 108.9197 Q256.0781 108.7478 255.9688 108.6384 Q255.8438 108.5291 255.4531 108.4353 Q253.6406 108.0291 253.1406 107.7009 Q252.4688 107.2322 252.4688 106.4197 Q252.4688 105.6697 253.0547 105.1697 Q253.6406 104.6697 254.875 104.6697 Q256.0469 104.6697 256.6094 105.0447 Q257.1719 105.4197 257.3906 106.1697 L255.9688 106.4353 Q255.875 106.1072 255.625 105.9275 Q255.375 105.7478 254.8906 105.7478 Q254.2969 105.7478 254.0469 105.9197 Q253.875 106.0291 253.875 106.2166 Q253.875 106.3884 254.0156 106.4978 Q254.2188 106.6541 255.4297 106.9275 Q256.6406 107.2009 257.1094 107.5916 Q257.5938 107.9978 257.5938 108.7166 Q257.5938 109.4978 256.9375 110.0603 Q256.2812 110.6228 254.9844 110.6228 Q253.8281 110.6228 253.1484 110.1541 Q252.4688 109.6853 252.2656 108.8728 ZM260.9219 106.5291 L259.5469 106.2791 Q259.7812 105.4666 260.3438 105.0681 Q260.9062 104.6697 262.0156 104.6697 Q263.0312 104.6697 263.5234 104.9041 Q264.0156 105.1384 264.2188 105.5056 Q264.4219 105.8728 264.4219 106.8572 L264.4062 108.6228 Q264.4062 109.3728 264.4766 109.7322 Q264.5469 110.0916 264.75 110.4978 L263.25 110.4978 Q263.1875 110.3416 263.1094 110.0447 Q263.0781 109.9197 263.0625 109.8728 Q262.6719 110.2478 262.2266 110.4353 Q261.7812 110.6228 261.2812 110.6228 Q260.4062 110.6228 259.8984 110.1462 Q259.3906 109.6697 259.3906 108.9353 Q259.3906 108.4509 259.625 108.0759 Q259.8594 107.7009 260.2734 107.4978 Q260.6875 107.2947 261.4688 107.1384 Q262.5312 106.9509 262.9375 106.7791 L262.9375 106.6228 Q262.9375 106.1853 262.7188 106.0056 Q262.5 105.8259 261.9062 105.8259 Q261.5156 105.8259 261.2891 105.9822 Q261.0625 106.1384 260.9219 106.5291 ZM262.9375 107.7634 Q262.6406 107.8572 262.0156 107.99 Q261.3906 108.1228 261.2031 108.2478 Q260.9062 108.4666 260.9062 108.7791 Q260.9062 109.1072 261.1406 109.3337 Q261.375 109.5603 261.7344 109.5603 Q262.1406 109.5603 262.5156 109.2947 Q262.7969 109.0916 262.875 108.7947 Q262.9375 108.6072 262.9375 108.0603 L262.9375 107.7634 ZM268.4062 104.7947 L268.4062 105.9978 L267.375 105.9978 L267.375 108.2947 Q267.375 108.9978 267.4062 109.115 Q267.4375 109.2322 267.5391 109.3025 Q267.6406 109.3728 267.7969 109.3728 Q268 109.3728 268.4062 109.2322 L268.5312 110.4041 Q268 110.6228 267.3438 110.6228 Q266.9219 110.6228 266.5938 110.49 Q266.2656 110.3572 266.1172 110.1384 Q265.9688 109.9197 265.9062 109.5447 Q265.8594 109.2791 265.8594 108.4822 L265.8594 105.9978 L265.1719 105.9978 L265.1719 104.7947 L265.8594 104.7947 L265.8594 103.6541 L267.375 102.7791 L267.375 104.7947 L268.4062 104.7947 ZM269.7969 104.0134 L269.7969 102.6228 L271.2969 102.6228 L271.2969 104.0134 L269.7969 104.0134 ZM269.7969 110.4978 L269.7969 104.7947 L271.2969 104.7947 L271.2969 110.4978 L269.7969 110.4978 ZM272.4375 107.5603 Q272.4375 106.8103 272.8125 106.1072 Q273.1875 105.4041 273.8672 105.0369 Q274.5469 104.6697 275.375 104.6697 Q276.6719 104.6697 277.5 105.5056 Q278.3281 106.3416 278.3281 107.6228 Q278.3281 108.9197 277.4922 109.7712 Q276.6562 110.6228 275.3906 110.6228 Q274.6094 110.6228 273.8984 110.2712 Q273.1875 109.9197 272.8125 109.2322 Q272.4375 108.5447 272.4375 107.5603 ZM273.9844 107.6384 Q273.9844 108.4978 274.3906 108.9509 Q274.7969 109.4041 275.3906 109.4041 Q275.9688 109.4041 276.375 108.9509 Q276.7812 108.4978 276.7812 107.6384 Q276.7812 106.7947 276.375 106.3416 Q275.9688 105.8884 275.3906 105.8884 Q274.7969 105.8884 274.3906 106.3416 Q273.9844 106.7947 273.9844 107.6384 ZM284.9844 110.4978 L283.4688 110.4978 L283.4688 107.5916 Q283.4688 106.6697 283.375 106.3962 Q283.2812 106.1228 283.0625 105.9744 Q282.8438 105.8259 282.5312 105.8259 Q282.1406 105.8259 281.8281 106.0369 Q281.5156 106.2478 281.3984 106.5994 Q281.2812 106.9509 281.2812 107.9197 L281.2812 110.4978 L279.7812 110.4978 L279.7812 104.7947 L281.1875 104.7947 L281.1875 105.6384 Q281.9219 104.6697 283.0625 104.6697 Q283.5625 104.6697 283.9766 104.8494 Q284.3906 105.0291 284.6016 105.3025 Q284.8125 105.5759 284.8984 105.9353 Q284.9844 106.2947 284.9844 106.9509 L284.9844 110.4978 Z"
         clip-path="url(#clipPath1)"
         stroke="none"
         id="path77" />
      <path
         fill="black"
         d="M31.7969 106.6228 L33.375 106.6228 L33.375 110.8884 Q33.375 111.9041 33.4375 112.2009 Q33.5469 112.6853 33.9297 112.9822 Q34.3125 113.2791 34.9688 113.2791 Q35.6562 113.2791 36 112.9978 Q36.3438 112.7166 36.4141 112.3181 Q36.4844 111.9197 36.4844 110.9822 L36.4844 106.6228 L38.0625 106.6228 L38.0625 110.7634 Q38.0625 112.1697 37.9375 112.7556 Q37.8125 113.3416 37.4688 113.7478 Q37.125 114.1541 36.5391 114.3962 Q35.9531 114.6384 35.0156 114.6384 Q33.8906 114.6384 33.3125 114.3728 Q32.7344 114.1072 32.3906 113.6931 Q32.0469 113.2791 31.9531 112.8259 Q31.7969 112.1384 31.7969 110.8259 L31.7969 106.6228 ZM41.4062 108.7947 L41.4062 109.9978 L40.375 109.9978 L40.375 112.2947 Q40.375 112.9978 40.4062 113.115 Q40.4375 113.2322 40.5391 113.3025 Q40.6406 113.3728 40.7969 113.3728 Q41 113.3728 41.4062 113.2322 L41.5312 114.4041 Q41 114.6228 40.3438 114.6228 Q39.9219 114.6228 39.5938 114.49 Q39.2656 114.3572 39.1172 114.1384 Q38.9688 113.9197 38.9062 113.5447 Q38.8594 113.2791 38.8594 112.4822 L38.8594 109.9978 L38.1719 109.9978 L38.1719 108.7947 L38.8594 108.7947 L38.8594 107.6541 L40.375 106.7791 L40.375 108.7947 L41.4062 108.7947 ZM42.7969 108.0134 L42.7969 106.6228 L44.2969 106.6228 L44.2969 108.0134 L42.7969 108.0134 ZM42.7969 114.4978 L42.7969 108.7947 L44.2969 108.7947 L44.2969 114.4978 L42.7969 114.4978 ZM45.7969 114.4978 L45.7969 106.6228 L47.2969 106.6228 L47.2969 114.4978 L45.7969 114.4978 ZM48.7969 108.0134 L48.7969 106.6228 L50.2969 106.6228 L50.2969 108.0134 L48.7969 108.0134 ZM48.7969 114.4978 L48.7969 108.7947 L50.2969 108.7947 L50.2969 114.4978 L48.7969 114.4978 ZM51.2656 112.8728 L52.7656 112.6384 Q52.875 113.0759 53.1641 113.3025 Q53.4531 113.5291 53.9844 113.5291 Q54.5781 113.5291 54.875 113.3259 Q55.0781 113.1697 55.0781 112.9197 Q55.0781 112.7478 54.9688 112.6384 Q54.8438 112.5291 54.4531 112.4353 Q52.6406 112.0291 52.1406 111.7009 Q51.4688 111.2322 51.4688 110.4197 Q51.4688 109.6697 52.0547 109.1697 Q52.6406 108.6697 53.875 108.6697 Q55.0469 108.6697 55.6094 109.0447 Q56.1719 109.4197 56.3906 110.1697 L54.9688 110.4353 Q54.875 110.1072 54.625 109.9275 Q54.375 109.7478 53.8906 109.7478 Q53.2969 109.7478 53.0469 109.9197 Q52.875 110.0291 52.875 110.2166 Q52.875 110.3884 53.0156 110.4978 Q53.2188 110.6541 54.4297 110.9275 Q55.6406 111.2009 56.1094 111.5916 Q56.5938 111.9978 56.5938 112.7166 Q56.5938 113.4978 55.9375 114.0603 Q55.2812 114.6228 53.9844 114.6228 Q52.8281 114.6228 52.1484 114.1541 Q51.4688 113.6853 51.2656 112.8728 ZM59.9219 110.5291 L58.5469 110.2791 Q58.7812 109.4666 59.3438 109.0681 Q59.9062 108.6697 61.0156 108.6697 Q62.0312 108.6697 62.5234 108.9041 Q63.0156 109.1384 63.2188 109.5056 Q63.4219 109.8728 63.4219 110.8572 L63.4062 112.6228 Q63.4062 113.3728 63.4766 113.7322 Q63.5469 114.0916 63.75 114.4978 L62.25 114.4978 Q62.1875 114.3416 62.1094 114.0447 Q62.0781 113.9197 62.0625 113.8728 Q61.6719 114.2478 61.2266 114.4353 Q60.7812 114.6228 60.2812 114.6228 Q59.4062 114.6228 58.8984 114.1462 Q58.3906 113.6697 58.3906 112.9353 Q58.3906 112.4509 58.625 112.0759 Q58.8594 111.7009 59.2734 111.4978 Q59.6875 111.2947 60.4688 111.1384 Q61.5312 110.9509 61.9375 110.7791 L61.9375 110.6228 Q61.9375 110.1853 61.7188 110.0056 Q61.5 109.8259 60.9062 109.8259 Q60.5156 109.8259 60.2891 109.9822 Q60.0625 110.1384 59.9219 110.5291 ZM61.9375 111.7634 Q61.6406 111.8572 61.0156 111.99 Q60.3906 112.1228 60.2031 112.2478 Q59.9062 112.4666 59.9062 112.7791 Q59.9062 113.1072 60.1406 113.3337 Q60.375 113.5603 60.7344 113.5603 Q61.1406 113.5603 61.5156 113.2947 Q61.7969 113.0916 61.875 112.7947 Q61.9375 112.6072 61.9375 112.0603 L61.9375 111.7634 ZM67.4062 108.7947 L67.4062 109.9978 L66.375 109.9978 L66.375 112.2947 Q66.375 112.9978 66.4062 113.115 Q66.4375 113.2322 66.5391 113.3025 Q66.6406 113.3728 66.7969 113.3728 Q67 113.3728 67.4062 113.2322 L67.5312 114.4041 Q67 114.6228 66.3438 114.6228 Q65.9219 114.6228 65.5938 114.49 Q65.2656 114.3572 65.1172 114.1384 Q64.9688 113.9197 64.9062 113.5447 Q64.8594 113.2791 64.8594 112.4822 L64.8594 109.9978 L64.1719 109.9978 L64.1719 108.7947 L64.8594 108.7947 L64.8594 107.6541 L66.375 106.7791 L66.375 108.7947 L67.4062 108.7947 ZM72.0938 112.6853 L73.5938 112.9353 Q73.3125 113.7634 72.6875 114.1931 Q72.0625 114.6228 71.1094 114.6228 Q69.625 114.6228 68.9062 113.6541 Q68.3438 112.8728 68.3438 111.6853 Q68.3438 110.2634 69.0859 109.4666 Q69.8281 108.6697 70.9688 108.6697 Q72.2344 108.6697 72.9688 109.5056 Q73.7031 110.3416 73.6719 112.0759 L69.8906 112.0759 Q69.9062 112.7478 70.2578 113.1228 Q70.6094 113.4978 71.125 113.4978 Q71.4844 113.4978 71.7266 113.3025 Q71.9688 113.1072 72.0938 112.6853 ZM72.1719 111.1541 Q72.1562 110.4978 71.8359 110.1619 Q71.5156 109.8259 71.0625 109.8259 Q70.5625 109.8259 70.2344 110.1853 Q69.9219 110.5447 69.9219 111.1541 L72.1719 111.1541 ZM79.5469 114.4978 L79.5469 113.6384 Q79.2344 114.1072 78.7266 114.365 Q78.2188 114.6228 77.6562 114.6228 Q77.0781 114.6228 76.625 114.3728 Q76.1719 114.1228 75.9609 113.6619 Q75.75 113.2009 75.75 112.4041 L75.75 108.7947 L77.2656 108.7947 L77.2656 111.4197 Q77.2656 112.6228 77.3516 112.8884 Q77.4375 113.1541 77.6562 113.3181 Q77.875 113.4822 78.2188 113.4822 Q78.5938 113.4822 78.9062 113.2712 Q79.2188 113.0603 79.3281 112.74 Q79.4375 112.4197 79.4375 111.2009 L79.4375 108.7947 L80.9531 108.7947 L80.9531 114.4978 L79.5469 114.4978 ZM84.2344 114.4978 L82.7188 114.4978 L82.7188 108.7947 L84.125 108.7947 L84.125 109.6072 Q84.4844 109.0291 84.7734 108.8494 Q85.0625 108.6697 85.4219 108.6697 Q85.9375 108.6697 86.4219 108.9509 L85.9531 110.2634 Q85.5781 110.0134 85.25 110.0134 Q84.9219 110.0134 84.7031 110.1931 Q84.4844 110.3728 84.3594 110.8259 Q84.2344 111.2791 84.2344 112.7322 L84.2344 114.4978 Z"
         clip-path="url(#clipPath1)"
         stroke="none"
         id="path79" />
      <line
         clip-path="url(#clipPath1)"
         fill="none"
         x1="60"
         x2="60"
         y1="86"
         y2="96"
         stroke="rgb(178,178,178)"
         id="line81" />
      <line
         clip-path="url(#clipPath1)"
         fill="none"
         x1="47"
         x2="73"
         y1="91"
         y2="91"
         stroke="rgb(178,178,178)"
         id="line83" />
      <line
         clip-path="url(#clipPath1)"
         fill="none"
         x1="47"
         x2="60"
         y1="105"
         y2="96"
         stroke="rgb(178,178,178)"
         id="line85" />
      <line
         clip-path="url(#clipPath1)"
         fill="none"
         x1="73"
         x2="60"
         y1="105"
         y2="96"
         stroke="rgb(178,178,178)"
         id="line87" />
      <line
         clip-path="url(#clipPath1)"
         fill="none"
         x1="61"
         x2="61"
         y1="86"
         y2="97"
         stroke="rgb(178,178,178)"
         id="line89" />
      <line
         clip-path="url(#clipPath1)"
         fill="none"
         x1="48"
         x2="74"
         y1="92"
         y2="92"
         stroke="rgb(178,178,178)"
         id="line91" />
      <line
         clip-path="url(#clipPath1)"
         fill="none"
         x1="48"
         x2="61"
         y1="106"
         y2="97"
         stroke="rgb(178,178,178)"
         id="line93" />
      <line
         clip-path="url(#clipPath1)"
         fill="none"
         x1="74"
         x2="61"
         y1="106"
         y2="97"
         stroke="rgb(178,178,178)"
         id="line95" />
      <circle
         fill="rgb(178,178,178)"
         r="4.5"
         clip-path="url(#clipPath1)"
         cx="61.5"
         cy="83.5"
         stroke="none"
         id="circle97" />
      <circle
         fill="url(#linearGradient3)"
         r="4.5"
         clip-path="url(#clipPath1)"
         cx="59.5"
         cy="81.5"
         stroke="none"
         id="circle99" />
      <circle
         fill="none"
         r="4.5"
         clip-path="url(#clipPath1)"
         cx="59.5"
         cy="81.5"
         stroke="rgb(102,102,71)"
         id="circle101" />
      <line
         clip-path="url(#clipPath1)"
         fill="none"
         x1="59"
         x2="59"
         y1="86"
         y2="95"
         stroke="rgb(102,102,71)"
         id="line103" />
      <line
         clip-path="url(#clipPath1)"
         fill="none"
         x1="46"
         x2="72"
         y1="90"
         y2="90"
         stroke="rgb(102,102,71)"
         id="line105" />
      <line
         clip-path="url(#clipPath1)"
         fill="none"
         x1="46"
         x2="59"
         y1="104"
         y2="95"
         stroke="rgb(102,102,71)"
         id="line107" />
      <line
         clip-path="url(#clipPath1)"
         fill="none"
         x1="72"
         x2="59"
         y1="104"
         y2="95"
         stroke="rgb(102,102,71)"
         id="line109" />
      <path
         fill="none"
         d="M147 99 L73 98"
         clip-path="url(#clipPath1)"
         stroke="black"
         id="path111" />
    </g>
  </g>
</svg>
